<?xml version="1.0" encoding="UTF-8" standalone="no"?>
<svg
   xmlns:dc="http://purl.org/dc/elements/1.1/"
   xmlns:cc="http://creativecommons.org/ns#"
   xmlns:rdf="http://www.w3.org/1999/02/22-rdf-syntax-ns#"
   xmlns:svg="http://www.w3.org/2000/svg"
   xmlns="http://www.w3.org/2000/svg"
   xmlns:sodipodi="http://sodipodi.sourceforge.net/DTD/sodipodi-0.dtd"
   xmlns:inkscape="http://www.inkscape.org/namespaces/inkscape"
   inkscape:version="1.0 (4035a4fb49, 2020-05-01)"
   sodipodi:docname="BITTERY-new.svg"
   id="svg78"
   preserveAspectRatio="xMidYMid meet"
   viewBox="0 0 269.000000 130.000000"
   height="130.000000pt"
   width="269.000000pt"
   version="1.0">
  <metadata
     id="metadata84">
    <rdf:RDF>
      <cc:Work
         rdf:about="">
        <dc:format>image/svg+xml</dc:format>
        <dc:type
           rdf:resource="http://purl.org/dc/dcmitype/StillImage" />
        <dc:title></dc:title>
      </cc:Work>
    </rdf:RDF>
  </metadata>
  <defs
     id="defs82" />
  <sodipodi:namedview
     inkscape:current-layer="svg78"
     inkscape:window-maximized="1"
     inkscape:window-y="0"
     inkscape:window-x="0"
     inkscape:cy="125.56881"
     inkscape:cx="108.33333"
     inkscape:zoom="2"
     showgrid="false"
     id="namedview80"
     inkscape:window-height="1375"
     inkscape:window-width="2560"
     inkscape:pageshadow="2"
     inkscape:pageopacity="0"
     guidetolerance="10"
     gridtolerance="10"
     objecttolerance="10"
     borderopacity="1"
     bordercolor="#666666"
     pagecolor="#ffffff"
     inkscape:document-rotation="0" />
  <g
     id="g76"
     stroke="none"
     fill="#000000"
     transform="translate(0.000000,130.000000) scale(0.100000,-0.100000)">
    <path
       id="path66"
       d="M 205,1291 C 119,1269 52,1211 24,1133 7,1085 4,257 20,198 37,139 91,68 144,35 L 193,5 1197,2 c 716,-2 1016,1 1046,9 28,7 57,27 89,59 79,82 79,85 76,611 -3,443 -4,455 -25,494 -24,46 -54,75 -103,101 -33,18 -80,19 -1040,21 -553,0 -1018,-2 -1035,-6 z M 2279,901 c -32,-60 -59,-114 -59,-120 0,-7 26,-11 70,-11 39,0 70,-2 70,-5 0,-8 -353,-535 -356,-532 -2,2 17,87 41,191 25,103 45,191 45,197 0,5 -40,9 -90,9 -49,0 -90,4 -90,9 0,4 27,84 60,177 33,93 63,175 65,182 3,9 43,12 154,12 h 149 z M 315,926 c 18,-8 38,-23 43,-33 30,-56 20,-170 -16,-193 -12,-8 -15.81762,-13.11773 -5.81762,-16.11773 C 365.57611,661.17114 394,543 368,457 350,396 315,380 203,380 h -93 v 280 280 h 85 c 51,0 99,-6 120,-14 z M 520,660 V 380 h -50 -50 v 280 280 h 50 50 z M 790,885 760.05769,830.57251 729.98328,830.4265 730,605 V 380 h -55 -55 v 225 225 h -35 -35 v 55 55 h 120 120 z m 260,0 c 0,-54 0,-55 -30,-55 H 990 V 605 380 h -55 -55 v 225 225 h -35 -35 v 55 55 h 120 120 z m 260,0 v -55 h -55 -55 v -55 -55 h 50 50 v -50 -50 h -50 -50 v -65 -65 h 55 55 v -55 -55 h -110 -110 v 280 280 h 110 110 z m 282,27 c 19,-19 23,-35 27,-103 3,-71 1,-85 -19,-111 -21,-28 -21,-30 -3,-43 15,-12 18,-31 22,-144 l 3,-131 h -56 -56 v 120 c 0,106 -2,120 -19,129 -10,6 -21,7 -25,4 -3,-3 -6,-62 -6,-130 V 380 h -55 -55 v 273 c 0,151 3,277 8,281 4,4 53,6 109,4 91,-3 105,-6 125,-26 z m 161,6 c 3,-13 9,-45 12,-73 12,-93 18,-93 34,0 l 16,90 53,3 c 28,2 52,0 52,-4 0,-4 -20,-92 -45,-196 -35,-147 -45,-208 -45,-274 v -84 h -50 -50 v 95 c 0,77 -8,130 -40,268 -23,94 -43,178 -45,185 -3,8 11,12 49,12 48,0 54,-3 59,-22 z"
       sodipodi:nodetypes="ccccccccccccccsssscsssscscccccccscccsccccccccccccccccccccccccccsscccccccccccccscccccccccccccccccccccccccscccccccsccscccsccscccccscscccsccsc" />
    <path
       id="path68"
       d="m 220,791 c 0,-54 5.20713,-62.59383 23.20713,-62.59383 23,0 31.39648,31.33896 26.39648,82.33896 C 267.60361,836.74513 260,846 243,848 c -22,3 -23,0 -23,-57 z"
       sodipodi:nodetypes="ssccs" />
    <path
       id="path70"
       d="M220 560 c0 -78 1 -81 22 -78 48 7 49 149 0 156 -21 3 -22 1 -22 -78z" />
    <path
       id="path72"
       d="m 1459.2806,841.2525 c -14,-13 0.6667,-104.12266 15.6667,-110.12266 23,-9 49.2148,19.05139 49.2148,54.05139 0,43 -42.8815,79.07127 -64.8815,56.07127 z"
       sodipodi:nodetypes="ccsc" />
    <path
       id="path74"
       d="M2508 924 c-5 -4 -8 -131 -8 -282 l0 -274 75 4 c114 5 109 -4 113 260 3 224 -2 270 -34 282 -26 10 -139 18 -146 10z" />
  </g>
  <path
     transform="scale(0.75000002)"
     id="path911"
     d="m 14.645277,85.322958 0.02139,-37.322959 10.504615,0.03649 c 10.957483,0.03807 14.19711,0.576551 17.286871,1.967235 2.470703,1.112049 4.852738,3.152632 5.68727,4.799504 1.658415,3.272725 2.601864,9.805169 2.024086,14.525876 -0.670927,5.481787 -2.181184,8.800133 -4.486059,10.729885 -0.786165,0.658214 -1.631443,1.187653 -1.631443,1.407493 0,0.219843 1.315632,0.836431 1.932345,1.183043 4.82373,2.711089 6.277205,17.277626 3.443244,28.490595 -1.601796,6.33774 -4.459832,9.4209 -10.425595,10.83914 -1.672404,0.39758 -4.360764,0.90281 -13.160186,0.70371 l -11.175148,-0.0163 z m 19.012336,23.288212 c 2.465713,-1.66164 3.396166,-4.41028 3.398198,-10.038556 0.0011,-3.149284 -0.119118,-4.372283 -0.556077,-5.655325 -1.18203,-3.470795 -2.543484,-4.759319 -5.030753,-4.761266 -2.136285,-0.0018 -2.14808,0.05638 -2.149434,10.578634 -0.001,8.061093 0.05088,9.022073 0.526595,9.747993 0.687856,1.04964 2.360922,1.10605 3.811471,0.12852 z m 0.490083,-33.324104 c 1.327378,-1.234818 1.811219,-3.131899 1.804149,-7.810632 -0.0073,-4.823827 -0.72184,-6.160086 -2.278711,-6.898535 -1.244454,-0.590265 -3.091918,-0.217515 -3.548344,0.406681 -0.602968,0.824608 -0.865969,3.108045 -0.723983,8.440908 0.138531,5.20313 0.560813,5.832753 1.736896,6.324122 0.924371,0.386204 2.233023,0.260247 3.009993,-0.462547 z"
     style="fill:#01ff90;fill-opacity:1;stroke-width:0.297649"
     sodipodi:nodetypes="ccssssssssssccscsccssssssssss" />
  <path
     transform="scale(0.75000002)"
     id="path913"
     d="m 55.951321,85.351936 -0.06123,-37.327249 6.720535,0.0057 6.722708,-0.03035 v 37.333332 37.333329 l -6.668693,-0.0426 -6.664639,0.0426 z"
     style="fill:#01ff90;fill-opacity:1;stroke-width:0.297649"
     sodipodi:nodetypes="ccccccccc" />
  <path
     transform="scale(0.75000002)"
     id="path915"
     d="m 82.66349,92.463722 0.0032,-29.797057 -4.482321,0.04287 -4.851012,-0.04287 0.03913,-7.234954 -0.03913,-7.431712 15.961275,0.0031 16.038723,-0.0031 0.0419,6.760385 c 0.0503,8.116571 0.30725,7.820729 -4.35047,7.836724 l -3.693659,0.01269 v 29.887359 l 0.0022,30.169503 -7.194714,-0.004 -7.471953,0.004 z"
     style="fill:#01ff90;fill-opacity:1;stroke-width:0.297649"
     sodipodi:nodetypes="ccccccccsscccccc" />
  <path
     transform="scale(0.75000002)"
     id="path917"
     d="m 117.33155,92.556133 0.002,-29.889468 -4.51027,0.01728 -4.82306,-0.01728 0.0465,-7.25311 -0.0465,-7.413556 16.0335,0.0088 15.96628,-0.0088 0.0187,5.911159 c -0.007,5.518396 -0.001,7.974393 -0.49962,8.531938 -0.18541,0.20738 -2.26929,0.208526 -4.2701,0.214259 l -3.24896,0.0093 0.005,29.847945 -0.005,30.15205 -7.28487,-0.021 -7.38158,0.021 z"
     style="fill:#01ff90;fill-opacity:1;stroke-width:0.297649"
     sodipodi:nodetypes="cccccccccsscccccc" />
  <path
     transform="scale(0.75000002)"
     id="path919"
     d="m 145.33726,85.379456 -0.004,-37.379457 14.68075,-0.01268 14.65258,0.01268 v 7.333333 7.333333 l -7.41618,0.0061 -7.25048,-0.0061 1.5e-4,7.368117 -1.5e-4,7.298549 6.53721,-0.0015 6.79612,0.0015 -6.5e-4,6.668197 6.5e-4,6.665136 -6.81173,0.0351 -6.5216,-0.0351 0.005,8.682472 L 160,108 l 7.12152,0.004 7.54514,-0.004 0.006,7.25368 -0.006,7.41298 -14.55858,0.01 -14.77475,-0.01 z"
     style="fill:#01ff90;fill-opacity:1;stroke-width:0.297649"
     sodipodi:nodetypes="ccccccccccccccccccccccccc" />
  <path
     transform="scale(0.75000002)"
     id="path921"
     d="m 180.02094,98.986839 c 0.008,-22.805969 -0.18665,-44.016217 0.23383,-48.111897 0.16571,-1.614216 -0.071,-2.470757 0.43003,-2.758144 0.81335,-0.466552 18.82541,-0.254402 23.28802,0.223961 4.27107,0.45783 6.15224,1.324405 7.94849,2.939385 1.69846,1.527063 2.70636,3.591195 3.18295,5.946637 0.87374,4.318226 1.22138,15.568243 0.58408,18.539897 -0.22954,1.07031 -0.9422,2.635443 -2.3699,4.734851 -1.12811,1.658868 -2.10725,3.101796 -2.10742,3.458951 -1.8e-4,0.391128 0.7224,1.011746 1.59798,1.84074 1.80645,1.710343 2.26369,3.379389 2.68975,8.808903 0.26915,3.429919 0.72024,21.561237 0.72593,26.071977 l 0.042,1.98456 -7.43576,-0.004 -7.49757,0.004 -0.0373,-12.41133 c -0.0105,-12.674068 -0.20008,-17.445653 -0.93617,-19.207364 -0.61918,-1.481904 -3.54619,-2.701959 -4.60845,-2.017391 -0.69431,0.447452 -1.07293,5.11903 -1.08122,19.438855 l -0.004,14.19723 -7.25051,0.008 -7.41568,-0.008 z m 20.33544,-23.95611 c 2.67786,-1.906807 3.15811,-8.650524 0.84357,-11.845648 -1.60479,-2.215354 -3.75549,-2.736607 -5.35419,-1.297667 -1.2901,1.161174 -1.69089,3.731653 -1.22316,7.844899 0.38565,3.391483 1.16044,5.491611 2.18265,5.916235 0.90822,0.377268 2.55635,0.09053 3.55113,-0.617819 z"
     style="fill:#01ff90;fill-opacity:1;stroke-width:0.297649"
     sodipodi:nodetypes="csssssssssscccccsscccccssssss" />
  <path
     transform="scale(0.75000002)"
     id="path923"
     d="m 230.59874,110.99945 c -0.0571,-9.80195 -0.41194,-11.964707 -0.97438,-15.552147 -0.78928,-5.034338 -2.61962,-14.628765 -4.55143,-22.293576 -1.91638,-7.603591 -6.05038,-23.793227 -5.94395,-24.471685 0.16715,-1.065608 0.73915,-0.727529 5.8292,-0.771199 9.41605,-0.08078 8.37931,-0.490454 8.82017,1.288701 0.30573,1.233804 0.77078,5.245492 1.65721,12.138099 0.39002,3.032719 0.99935,6.175768 1.24456,7.035229 0.50093,1.755747 0.79205,1.999815 1.30707,0.699207 0.43413,-1.096322 1.57954,-7.540502 2.96793,-14.493904 l 1.16319,-6.748983 2.527,0.01705 c 3.23736,0.02185 8.90088,-0.0048 10.3596,0.01501 1.31497,0.01787 1.06171,0.138388 1.06024,0.685393 -0.0215,0.734814 -2.54771,12.300922 -6.46993,28.208844 -2.32652,9.435979 -4.2694,19.579899 -4.93014,24.559959 -0.31269,2.35677 -0.6623,6.86537 -0.66336,12.38111 l -0.002,8.97006 -6.80631,0.0104 -6.52702,-0.0104 z"
     style="fill:#01ff90;fill-opacity:1;stroke-width:0.297649"
     sodipodi:nodetypes="sssssssssscsscssscccs" />
  <rect
     style="fill:#000000;fill-opacity:0.995992;stroke-width:0.225;stroke-linecap:round"
     id="rect847"
     width="42.691475"
     height="83.603043"
     x="193.27579"
     y="26.703533" />
  <rect
     style="fill:#000000;fill-opacity:0.995992;stroke-width:0.225;stroke-linecap:round"
     id="rect849"
     width="5.9256935"
     height="11.550221"
     x="190.25764"
     y="57.567223" />
  <path
     sodipodi:nodetypes="cccsscssccccccccccc"
     style="fill:#f2c037;fill-opacity:1;stroke-width:0.23551"
     d="m 199.55615,114.36215 5.40407,-31.059457 2.49146,-14.250619 -8.44094,0.128613 c -3.77432,0.05751 -7.66498,0.10798 -8.08767,-0.04392 l -0.66543,-0.01932 0.68377,-3.374166 c 0.7129,-3.517878 4.08912,-15.568927 8.77502,-32.358296 l 2.64472,-9.475879 1.37596,-5.072246 6.77403,0.118168 21.36798,-0.07151 -4.3046,10.033026 -8.3007,22.653351 7.44936,-0.07163 5.43369,0.09581 -7.11347,14.757786 -25.4126,48.427859 z"
     id="path925" />
  <path
     transform="scale(0.75000002)"
     id="path2842"
     d="m 79.501723,172.64755 -53.740115,-0.17903 -4.065864,-2.5404 C 16.931314,166.95126 14.444777,164.90939 11.443055,161.5089 6.8325928,156.28597 3.2226798,149.55276 2.6115256,145.03633 1.162443,134.3276 1.1722797,52.942827 2.6254526,29.809727 2.8981112,25.469267 3.2149665,23.050762 3.6870303,21.706876 6.0544324,14.967281 12.625309,7.8534229 19.844152,4.2146188 20.867547,3.6987555 23.173169,2.7847602 24.967758,2.183518 L 28.230645,1.0903503 77.377486,0.76195037 C 131.17222,0.40249309 251.56418,0.66186298 277.6684,1.1934529 c 16.21897,0.3302855 21.97077,0.6699735 24.39518,1.4407248 4.70396,1.4954462 11.59399,7.4173703 14.54705,12.5030833 3.13182,5.393554 3.36611,7.069468 3.839,27.46134 0.5391,23.246404 0.56245,89.417339 0.034,96.459119 -1.00979,13.45715 -2.38413,17.11834 -8.9885,23.94521 -5.82086,6.01696 -9.72257,8.36532 -14.87055,8.95027 -8.59172,0.97626 -71.81421,1.17844 -217.122907,0.69435 z M 283.5063,120.49617 c 9.28518,-17.69535 18.98273,-36.548581 21.55011,-41.896076 l 4.66797,-9.722718 -3.38846,-0.220469 c -1.86365,-0.121258 -5.76059,-0.135093 -8.65986,-0.03076 -3.14157,0.11307 -5.19088,0.0593 -5.07211,-0.133085 0.10962,-0.177547 2.61507,-6.925421 5.56768,-14.995277 2.95261,-8.069856 6.49117,-17.2976 7.86347,-20.506097 1.37231,-3.208497 2.69617,-6.310928 2.94193,-6.894291 l 0.44683,-1.06066 h -19.05961 c -12.47042,0 -19.05974,0.122228 -19.06001,0.353553 -2.3e-4,0.194455 -3.0333,11.251837 -6.74016,24.571961 -6.94559,24.958119 -10.34616,37.820448 -10.77279,40.747028 l -0.24481,1.679379 h 11.40011 11.40011 l -0.19199,1.149048 c -0.10559,0.631977 -2.43335,13.998434 -5.17278,29.703244 -2.73944,15.7048 -4.98079,28.90207 -4.98079,29.32725 0,0.46426 0.12443,0.6389 0.31151,0.43719 0.17133,-0.18473 7.90848,-14.81389 17.19365,-32.50924 z m -245.976099,1.93207 c 5.535236,-0.89825 9.404563,-3.68908 11.015402,-7.94508 2.899813,-7.66161 3.239723,-20.778367 0.713428,-27.530494 C 48.5332,85.012708 46.724195,82.764773 45.207044,81.917521 44.537297,81.5435 44.589987,81.426142 46.204323,79.696226 49.151081,76.538489 50.317064,72.660687 50.32743,65.983676 50.3391,58.465342 48.830107,54.118173 45.308857,51.525976 41.333,48.599116 36.71565,47.841745 22.844792,47.841246 l -8.220116,-2.97e-4 v 37.47666 37.476661 l 10.341436,-0.003 c 5.687791,-10e-4 11.341633,-0.16498 12.564089,-0.36336 z M 69.425451,85.317609 V 47.840949 H 62.53116 55.636869 l 7.07e-4,29.256543 c 3.54e-4,16.091099 0.105408,32.955598 0.233246,37.476658 l 0.23243,8.22012 H 62.7643 69.425345 V 85.317609 Z M 97.356169,92.74223 V 62.690192 h 3.515491 c 4.7914,0 4.61624,0.311551 4.61624,-8.210397 V 47.840949 H 89.401218 73.314538 v 7.424622 7.424621 l 2.032932,0.06779 c 1.118113,0.03729 3.1864,0.02051 4.596194,-0.03727 l 2.563263,-0.105062 v 30.08931 30.08932 h 7.424621 7.424621 z m 34.648231,0 V 62.690192 h 3.84785 c 3.6915,0 3.85652,-0.03232 4.06104,-0.795495 0.11725,-0.437523 0.21536,-3.778602 0.21801,-7.424622 l 0.005,-6.629126 h -16.08668 -16.08668 v 7.424622 7.424621 h 4.59619 4.5962 v 30.052038 30.05204 h 7.42462 7.42462 z m 42.77996,22.62742 v -7.42462 h -7.24784 -7.24785 v -8.485286 -8.485281 h 6.54074 6.54074 v -6.894291 -6.894291 h -6.54074 -6.54074 v -7.247845 -7.247844 h 7.24785 7.24784 v -7.424621 -7.424622 h -14.84924 -14.84924 v 37.47666 37.476661 h 14.84924 14.84924 z m 20.17161,-6.45235 c 0.0197,-14.341175 0.27961,-19.239675 1.04599,-19.713323 0.64427,-0.398179 2.49976,0.224846 3.42491,1.15 1.07664,1.07664 1.52044,3.680236 1.52044,8.919805 0,2.372548 0.10511,8.635248 0.23358,13.917098 l 0.23359,9.60339 h 7.54459 7.54459 l -0.004,-0.97227 c -0.0207,-5.62113 -0.78796,-26.824895 -1.06259,-29.365498 -0.42662,-3.946692 -0.95606,-5.331101 -2.62428,-6.862139 -0.69262,-0.635657 -1.25931,-1.350797 -1.25931,-1.589198 0,-0.238401 0.79819,-1.656146 1.77374,-3.150546 2.71859,-4.164463 2.96357,-5.390158 2.71188,-13.568233 -0.31475,-10.227402 -0.9613,-13.069119 -3.56612,-15.673948 -3.21766,-3.217658 -5.21233,-3.571823 -20.18816,-3.584519 l -12.02081,-0.01018 -0.22019,3.889087 c -0.1211,2.138998 -0.24042,18.96372 -0.26516,37.388271 l -0.045,33.499173 h 7.6014 7.60139 l 0.0191,-13.87697 z m 49.23761,4.59619 c 0.29923,-12.38142 1.43283,-19.474356 6.42746,-40.216697 3.28099,-13.62576 5.4806,-23.469793 5.4806,-24.527678 V 47.86934 l -7.06277,-0.102584 -7.06277,-0.102583 -0.17347,0.883883 c -0.0954,0.486136 -0.34431,1.918027 -0.55312,3.181981 -0.52384,3.171013 -2.79852,14.732576 -3.21715,16.351844 -0.7994,3.092224 -1.26512,1.357549 -2.95089,-10.991349 -0.64606,-4.732673 -1.34936,-8.779565 -1.56289,-8.99309 -0.42968,-0.429684 -1.01103,-0.451898 -8.8059,-0.336488 -4.58896,0.06795 -5.43564,0.165608 -5.62088,0.648354 -0.11996,0.312597 1.3964,7.118101 3.36968,15.123334 6.80005,27.58652 7.44047,31.403005 7.83822,46.710478 0.16674,6.417 0.31283,11.86614 0.32463,12.10921 0.0164,0.33716 1.60097,0.44194 6.68321,0.44194 h 6.66175 z"
     style="fill:#001f10;fill-opacity:1;stroke:#01ff90;stroke-width:0;stroke-miterlimit:4;stroke-dasharray:none" />
  <path
     transform="scale(0.75000002)"
     id="path2844"
     d="m 333.53915,96.879826 c 0.0102,-30.017089 0.38651,-45.58615 1.12314,-46.47373 0.3886,-0.468243 1.28251,-0.515437 6.28939,-0.332049 6.40266,0.234512 11.26765,0.910545 13.22012,1.83705 0.91995,0.436546 1.49791,1.092007 2.13264,2.418596 1.66977,3.489849 1.80009,5.716236 1.76214,30.104032 -0.046,29.549885 -0.42449,33.776915 -3.28018,36.632605 -0.71321,0.7132 -1.92955,1.47598 -2.70299,1.69505 -0.77343,0.21908 -4.50867,0.55277 -8.30053,0.74154 -3.79186,0.18877 -7.65001,0.41725 -8.57367,0.50773 l -1.67938,0.16452 z"
     style="fill:#001f10;fill-opacity:1;stroke:#01ff90;stroke-width:0;stroke-miterlimit:4;stroke-dasharray:none" />
</svg>
