<?xml version="1.0" encoding="UTF-8" standalone="no"?>
<svg
   xmlns:dc="http://purl.org/dc/elements/1.1/"
   xmlns:cc="http://creativecommons.org/ns#"
   xmlns:rdf="http://www.w3.org/1999/02/22-rdf-syntax-ns#"
   xmlns:svg="http://www.w3.org/2000/svg"
   xmlns="http://www.w3.org/2000/svg"
   xmlns:sodipodi="http://sodipodi.sourceforge.net/DTD/sodipodi-0.dtd"
   xmlns:inkscape="http://www.inkscape.org/namespaces/inkscape"
   inkscape:version="1.0 (4035a4fb49, 2020-05-01)"
   sodipodi:docname="BITTERY-logo2.svg"
   id="svg78"
   preserveAspectRatio="xMidYMid meet"
   viewBox="0 0 269.000000 130.000000"
   height="130.000000pt"
   width="269.000000pt"
   version="1.0">
  <metadata
     id="metadata84">
    <rdf:RDF>
      <cc:Work
         rdf:about="">
        <dc:format>image/svg+xml</dc:format>
        <dc:type
           rdf:resource="http://purl.org/dc/dcmitype/StillImage" />
        <dc:title></dc:title>
      </cc:Work>
    </rdf:RDF>
  </metadata>
  <defs
     id="defs82" />
  <sodipodi:namedview
     inkscape:current-layer="svg78"
     inkscape:window-maximized="1"
     inkscape:window-y="0"
     inkscape:window-x="0"
     inkscape:cy="-20.815195"
     inkscape:cx="4.6922075"
     inkscape:zoom="1.4142136"
     showgrid="false"
     id="namedview80"
     inkscape:window-height="1375"
     inkscape:window-width="2560"
     inkscape:pageshadow="2"
     inkscape:pageopacity="0"
     guidetolerance="10"
     gridtolerance="10"
     objecttolerance="10"
     borderopacity="1"
     bordercolor="#666666"
     pagecolor="#ffffff"
     inkscape:document-rotation="0" />
  <g
     id="g76"
     stroke="none"
     fill="#000000"
     transform="translate(0.000000,130.000000) scale(0.100000,-0.100000)">
    <path
       id="path66"
       d="M205 1291 c-86 -22 -153 -80 -181 -158 -17 -48 -20 -876 -4 -935 17 -59 71 -130 124 -163 l49 -30 1004 -3 c716 -2 1016 1 1046 9 28 7 57 27 89 59 79 82 79 85 76 611 -3 443 -4 455 -25 494 -24 46 -54 75 -103 101 -33 18 -80 19 -1040 21 -553 0 -1018 -2 -1035 -6z m2074 -390 c-32 -60 -59 -114 -59 -120 0 -7 26 -11 70 -11 39 0 70 -2 70 -5 0 -8 -353 -535 -356 -532 -2 2 17 87 41 191 25 103 45 191 45 197 0 5 -40 9 -90 9 -49 0 -90 4 -90 9 0 4 27 84 60 177 33 93 63 175 65 182 3 9 43 12 154 12 l149 0 -59 -109z m-1964 25 c18 -8 38 -23 43 -33 30 -56 20 -170 -16 -193 -12 -8 -14 -13 -4 -16 39 -17 56 -141 30 -227 -18 -61 -53 -77 -165 -77 l-93 0 0 280 0 280 85 0 c51 0 99 -6 120 -14z m205 -266 l0 -280 -50 0 -50 0 0 280 0 280 50 0 50 0 0 -280z m270 225 c0 -54 0 -55 -30 -55 l-30 0 0 -225 0 -225 -55 0 -55 0 0 225 0 225 -35 0 -35 0 0 55 0 55 120 0 120 0 0 -55z m260 0 c0 -54 0 -55 -30 -55 l-30 0 0 -225 0 -225 -55 0 -55 0 0 225 0 225 -35 0 -35 0 0 55 0 55 120 0 120 0 0 -55z m260 0 l0 -55 -55 0 -55 0 0 -55 0 -55 50 0 50 0 0 -50 0 -50 -50 0 -50 0 0 -65 0 -65 55 0 55 0 0 -55 0 -55 -110 0 -110 0 0 280 0 280 110 0 110 0 0 -55z m282 27 c19 -19 23 -35 27 -103 3 -71 1 -85 -19 -111 -21 -28 -21 -30 -3 -43 15 -12 18 -31 22 -144 l3 -131 -56 0 -56 0 0 120 c0 106 -2 120 -19 129 -10 6 -21 7 -25 4 -3 -3 -6 -62 -6 -130 l0 -123 -55 0 -55 0 0 273 c0 151 3 277 8 281 4 4 53 6 109 4 91 -3 105 -6 125 -26z m161 6 c3 -13 9 -45 12 -73 12 -93 18 -93 34 0 l16 90 53 3 c28 2 52 0 52 -4 0 -4 -20 -92 -45 -196 -35 -147 -45 -208 -45 -274 l0 -84 -50 0 -50 0 0 95 c0 77 -8 130 -40 268 -23 94 -43 178 -45 185 -3 8 11 12 49 12 48 0 54 -3 59 -22z" />
    <path
       id="path68"
       d="M220 791 c0 -54 2 -61 20 -61 23 0 33 30 28 81 -2 26 -8 35 -25 37 -22 3 -23 0 -23 -57z" />
    <path
       id="path70"
       d="M220 560 c0 -78 1 -81 22 -78 48 7 49 149 0 156 -21 3 -22 1 -22 -78z" />
    <path
       id="path72"
       d="M1467 833 c-14 -13 -7 -93 8 -99 23 -9 45 15 45 50 0 43 -31 72 -53 49z" />
    <path
       id="path74"
       d="M2508 924 c-5 -4 -8 -131 -8 -282 l0 -274 75 4 c114 5 109 -4 113 260 3 224 -2 270 -34 282 -26 10 -139 18 -146 10z" />
  </g>
  <path
     transform="scale(0.75000002)"
     id="path911"
     d="M 14.882434,85.322958 V 48.210932 l 10.045643,0.134499 c 10.956567,0.146694 14.236761,0.505714 17.326522,1.896398 2.470703,1.112049 4.709414,2.98073 5.543946,4.627602 1.658415,3.272725 2.522597,9.66502 1.944819,14.385727 -0.670927,5.481787 -1.957094,8.685113 -4.261969,10.614865 -0.786165,0.658214 -1.429389,1.376622 -1.429389,1.596462 0,0.219843 0.504583,0.683303 1.121296,1.029915 4.82373,2.711089 6.907256,17.291195 4.073295,28.50416 -1.601796,6.33774 -4.442621,9.24929 -10.408384,10.66753 -1.672404,0.39758 -4.216199,0.5208 -13.017189,0.63052 l -10.93859,0.13638 z m 18.775179,23.288212 c 2.465713,-1.66164 3.396166,-4.41028 3.398198,-10.038556 0.0011,-3.149284 -0.119118,-4.372283 -0.556077,-5.655325 -1.18203,-3.470795 -2.543484,-4.759319 -5.030753,-4.761266 -2.136285,-0.0018 -2.14808,0.05638 -2.149434,10.578634 -0.001,8.061093 0.05088,9.022073 0.526595,9.747993 0.687856,1.04964 2.360922,1.10605 3.811471,0.12852 z m 0.490083,-33.324104 c 1.327378,-1.234818 1.719519,-2.991182 1.712449,-7.669915 -0.0073,-4.823827 -0.434025,-6.341336 -1.990896,-7.079785 -1.244454,-0.590265 -3.531939,-0.544626 -3.988365,0.07957 -0.602968,0.824608 -0.796062,3.403825 -0.654076,8.736688 0.138531,5.20313 0.348794,6.113924 1.524877,6.605293 0.924371,0.386204 2.619041,0.05094 3.396011,-0.671854 z"
     style="fill:#01ff90;stroke-width:0.297649;fill-opacity:1" />
  <path
     transform="scale(0.75000002)"
     id="path913"
     d="M 56.255602,85.327248 V 48.269986 h 6.399446 6.399447 v 37.057262 37.057262 h -6.399447 -6.399446 z"
     style="fill:#01ff90;fill-opacity:1;stroke-width:0.297649" />
  <path
     transform="scale(0.75000002)"
     id="path915"
     d="M 82.746335,92.470816 V 62.557123 H 78.13278 73.519225 v -7.143568 -7.143569 h 15.775381 15.775384 v 6.366472 c 0,8.116727 0.21772,7.730499 -4.43786,7.872588 l -3.30101,0.100747 v 29.887359 29.887358 h -7.292392 -7.292393 z"
     style="fill:#01ff90;fill-opacity:1;stroke-width:0.297649" />
  <path
     transform="scale(0.75000002)"
     id="path917"
     d="M 117.57123,92.470816 V 62.557123 h -4.76238 -4.76238 v -7.143568 -7.143569 h 15.92421 15.9242 l -0.007,5.580913 c -0.007,5.518396 -0.22572,7.569105 -0.87679,8.221731 -0.19647,0.196934 -1.74379,0.37701 -3.74375,0.435694 l -3.40886,0.100026 v 29.888079 29.888081 h -7.14357 -7.14357 z"
     style="fill:#01ff90;fill-opacity:1;stroke-width:0.297649" />
  <path
     transform="scale(0.75000002)"
     id="path919"
     d="M 145.55021,85.327248 V 48.269986 h 14.43596 14.43596 v 7.143569 7.143568 h -7.29239 -7.2924 v 7.441217 7.441217 h 6.6971 6.6971 v 6.548271 6.548272 h -6.6971 -6.6971 v 8.780636 8.780634 h 7.2924 7.29239 v 7.14357 7.14357 h -14.43596 -14.43596 z"
     style="fill:#01ff90;fill-opacity:1;stroke-width:0.297649" />
  <path
     transform="scale(0.75000002)"
     id="path921"
     d="m 180.08601,98.944675 c 0.008,-22.805969 0.34116,-43.689129 0.7616,-47.784809 0.16571,-1.614216 0.33385,-2.093802 0.83485,-2.381189 0.81335,-0.466552 17.74428,-0.428653 22.20689,0.04971 4.27107,0.45783 5.97927,1.041412 7.77552,2.656392 1.69846,1.527063 2.72488,3.359226 3.20147,5.714668 0.87374,4.318226 1.23649,15.502687 0.59919,18.474341 -0.22954,1.07031 -0.95319,2.454386 -2.38089,4.553794 -1.12811,1.658868 -2.05125,3.308341 -2.05142,3.665496 -1.8e-4,0.391128 0.57779,1.196714 1.45337,2.025708 1.80645,1.710343 2.27413,3.206057 2.70019,8.635571 0.26915,3.429919 0.89832,21.607933 0.90401,26.118673 l 0.002,1.71148 h -7.2924 -7.29239 l -0.01,-12.12918 c -0.0105,-12.674068 -0.25839,-17.46775 -0.99448,-19.229461 -0.61918,-1.481904 -3.83075,-3.004838 -4.89301,-2.32027 -0.69431,0.447452 -0.93205,5.444006 -0.94034,19.763831 l -0.008,13.91508 h -7.29239 -7.29239 z m 20.27037,-23.913946 c 2.67786,-1.906807 3.15811,-8.650524 0.84357,-11.845648 -1.60479,-2.215354 -3.75549,-2.736607 -5.35419,-1.297667 -1.2901,1.161174 -1.69089,3.731653 -1.22316,7.844899 0.38565,3.391483 1.16044,5.491611 2.18265,5.916235 0.90822,0.377268 2.55635,0.09053 3.55113,-0.617819 z"
     style="fill:#01ff90;fill-opacity:1;stroke-width:0.297649" />
  <path
     transform="scale(0.75000002)"
     id="path923"
     d="m 230.59874,110.99945 c -0.11849,-9.8014 -0.22851,-11.964707 -0.79095,-15.552147 -0.78928,-5.034338 -2.76666,-14.634267 -4.59821,-22.323652 -1.81111,-7.603591 -5.51746,-22.790263 -5.72202,-23.445844 -0.31872,-1.021414 1.48638,-1.407821 6.57662,-1.407821 5.1731,0 6.37756,0.287193 7.0794,1.688032 0.54078,1.079347 1.18466,4.5051 2.14428,11.40851 0.42099,3.028576 0.96607,6.209696 1.21128,7.069157 0.50093,1.755747 1.146,2.044729 1.66102,0.744121 0.43413,-1.096322 1.74324,-7.568311 2.94437,-14.556494 l 0.97998,-5.701446 1.51459,-0.165903 c 3.2182,-0.35251 9.09384,-0.543323 10.55256,-0.342698 1.30283,0.179186 1.52831,0.305005 1.52684,0.85201 -0.002,0.621534 -2.47718,11.494258 -6.24532,27.430161 -2.23634,9.457757 -4.26666,19.575955 -4.9274,24.556014 -0.31269,2.35677 -0.55173,6.912 -0.65212,12.42683 l -0.15848,8.70623 h -6.4794 -6.4794 z"
     style="fill:#01ff90;fill-opacity:1;stroke-width:0.297649" />
  <path
     style="fill:#01ff90;stroke-width:0.0131543;fill-opacity:1"
     d="m 49.897108,64.706334 c -0.05048,-1.431952 -0.259071,-3.292284 -0.535022,-4.771736 -0.455609,-2.442627 -1.158577,-4.540179 -1.884117,-5.621917 -0.418271,-0.623619 -1.079387,-1.332652 -1.818307,-1.950097 -1.42016,-1.186691 -3.119409,-2.12613 -4.893414,-2.705349 -2.480139,-0.809773 -5.745258,-1.128481 -13.029372,-1.271797 -1.475881,-0.02904 -4.907657,-0.07927 -5.415445,-0.07927 H 22.10682 v -0.151275 -0.151275 l 2.193486,1.86e-4 c 2.117907,1.79e-4 3.242919,0.01064 4.225831,0.0393 5.508942,0.160628 10.562859,0.823505 13.1938,1.730514 0.657166,0.226556 1.8226,0.8513 2.821606,1.512554 0.872635,0.577608 1.583407,1.140951 2.181722,1.729189 0.715146,0.703099 0.945647,1.048662 1.450837,2.175064 1.106983,2.468196 1.783375,5.852509 1.89397,9.476449 l 0.0089,0.292684 h -0.08548 -0.08549 z"
     id="path845"
     transform="scale(0.75000002)" />
  <path
     style="fill:#01ff90;fill-opacity:1;stroke-width:0.018603"
     d="M 14.669911,58.386224 V 48.015028 h 3.711307 3.711307 v 0.139523 0.139523 l -0.199983,-3.4e-5 c -0.272898,-4.6e-5 -5.484682,-0.06941 -6.334336,-0.08431 l -0.683662,-0.01198 v 10.279836 10.279836 h -0.102317 -0.102316 z"
     id="path851"
     transform="scale(0.75000002)" />
  <path
     style="fill:#01ff90;fill-opacity:1;stroke-width:0.0131543"
     d="m 14.670541,74.983929 v -6.215425 h 0.105235 0.105235 v 6.215425 6.215424 h -0.105235 -0.105235 z"
     id="path853"
     transform="scale(0.75000002)" />
  <path
     style="fill:#01ff90;fill-opacity:1;stroke-width:0.0131543"
     d="m 14.670541,90.144303 v -8.94495 h 0.105235 0.105235 v 8.94495 8.94495 h -0.105235 -0.105235 z"
     id="path855"
     transform="scale(0.75000002)" />
  <path
     style="fill:#01ff90;fill-opacity:1;stroke-width:0.0131543"
     d="m 14.670541,108.56038 v -9.471127 h 0.105235 0.105235 v 9.471127 9.47112 h -0.105235 -0.105235 z"
     id="path857"
     transform="scale(0.75000002)" />
  <path
     style="fill:#01ff90;fill-opacity:1;stroke-width:0.0131543"
     d="m 14.670541,120.34666 v -2.31516 h 0.105235 0.105235 v 2.20531 2.2053 l 0.667582,-0.009 c 0.367171,-0.005 2.801545,-0.0353 5.409722,-0.0675 8.704319,-0.10741 10.263951,-0.1335 12.588701,-0.21058 2.863798,-0.095 4.229845,-0.22423 5.432742,-0.51412 1.789886,-0.43134 3.35642,-1.04323 4.604018,-1.79832 1.33699,-0.8092 2.421376,-1.8405 3.308255,-3.1463 0.06388,-0.0941 0.121103,-0.17663 0.127163,-0.1835 0.0061,-0.007 0.01097,0.0967 0.01091,0.2302 l -1.31e-4,0.2427 -0.160144,0.22362 c -0.916663,1.28003 -2.014796,2.25085 -3.41104,3.01558 -2.501061,1.36983 -6.097472,2.10113 -11.496891,2.33779 -2.082297,0.0913 -2.896454,0.0988 -10.664879,0.099 l -6.626476,1.3e-4 z"
     id="path859"
     transform="scale(0.75000002)" />
  <path
     style="fill:#01ff90;fill-opacity:1;stroke-width:0.0131543"
     d="m 47.03688,116.72406 -0.0087,-0.22986 0.112488,-0.17926 c 0.369613,-0.58903 0.753332,-1.343 1.071182,-2.10478 0.960416,-2.30178 1.716038,-5.6575 2.077856,-9.22776 0.04908,-0.4843 0.131783,-1.46557 0.13221,-1.56866 8.2e-5,-0.0197 0.01329,-0.023 0.09218,-0.023 h 0.09208 v 0.0637 c 0,0.0794 -0.05737,0.82047 -0.09282,1.1991 -0.266664,2.84754 -0.735606,5.33989 -1.4615,7.76763 -0.47534,1.58977 -0.998085,2.8519 -1.626292,3.92657 -0.104305,0.17844 -0.349461,0.57259 -0.37056,0.59578 -0.0052,0.006 -0.01337,-0.093 -0.01814,-0.21946 z"
     id="path861"
     transform="scale(0.75000002)" />
  <path
     style="fill:#01ff90;fill-opacity:1;stroke-width:0.0131543"
     d="m 50.427698,103.32166 c 0.0065,-0.0594 0.02855,-0.44223 0.05362,-0.93067 0.07454,-1.45229 0.06636,-3.510439 -0.01988,-5.001775 -0.0879,-1.520086 -0.235947,-2.963784 -0.434647,-4.238433 -0.02137,-0.13707 -0.03885,-0.256939 -0.03885,-0.266375 0,-0.01245 0.0249,-0.01716 0.09073,-0.01716 h 0.09073 l 0.01411,0.08222 c 0.0078,0.04522 0.03769,0.244999 0.06651,0.443959 0.341284,2.355927 0.500998,4.947822 0.461218,7.484814 -0.01401,0.8933 -0.02817,1.27539 -0.08738,2.35792 l -0.0085,0.15456 h -0.09763 -0.09763 z"
     id="path863"
     transform="scale(0.75000002)" />
  <path
     style="fill:#01ff90;fill-opacity:1;stroke-width:0.0131543"
     d="m 49.970209,92.797435 c -0.0138,-0.117398 -0.150472,-0.875867 -0.226828,-1.258772 -0.356623,-1.788382 -0.835902,-3.436815 -1.386418,-4.768447 -0.530466,-1.283132 -1.137103,-2.331986 -1.787932,-3.09127 -0.457726,-0.534001 -0.855955,-0.871744 -1.428458,-1.211493 l -0.197315,-0.117095 0.26052,-0.0036 0.26052,-0.0036 0.14793,0.09768 c 1.397665,0.922926 2.603451,2.92552 3.513613,5.835484 0.395172,1.263439 0.740381,2.745226 0.986782,4.235697 0.02571,0.15555 0.05009,0.299097 0.05416,0.318993 l 0.0074,0.03617 h -0.09789 -0.09789 z"
     id="path865"
     transform="scale(0.75000002)" />
  <path
     style="fill:#01ff90;fill-opacity:1;stroke-width:0.0131543"
     d="m 44.802654,82.254413 c -0.404755,-0.280157 -0.710762,-0.594679 -0.742338,-0.762994 -0.02493,-0.132882 0.302216,-0.564752 0.779265,-1.028722 0.218167,-0.212187 0.368453,-0.348266 0.675612,-0.611749 1.565515,-1.342908 2.577512,-3.111078 3.34837,-5.850306 l 0.02129,-0.07564 h 0.103888 c 0.07751,0 0.102381,0.0042 0.09795,0.01644 -0.0033,0.009 -0.05062,0.172643 -0.105224,0.363555 -0.411326,1.43803 -0.955874,2.731704 -1.562077,3.711001 -0.326889,0.528077 -0.660947,0.956533 -1.04122,1.335448 -0.266144,0.265193 -0.449982,0.415401 -0.796924,0.651137 -0.738513,0.501797 -1.145449,0.870522 -1.299376,1.177365 -0.05371,0.107066 -0.07177,0.180047 -0.07087,0.286319 0.0022,0.259111 0.245917,0.47035 0.732258,0.634704 0.132092,0.04464 0.361082,0.150072 0.469485,0.216163 l 0.04353,0.02654 -0.263087,-5.26e-4 -0.263087,-5.26e-4 -0.127449,-0.08822 z"
     id="path867"
     transform="scale(0.75000002)" />
  <path
     style="fill:#01ff90;fill-opacity:1;stroke-width:0.0131543"
     d="m 48.887884,73.904894 c 0.01809,-0.04713 0.169597,-0.65681 0.237742,-0.956675 0.341331,-1.501986 0.636271,-3.457557 0.736529,-4.883472 0.04789,-0.681128 0.05344,-0.887811 0.05344,-1.989595 v -1.108254 l 0.08221,10e-7 0.08221,10e-7 -2.8e-5,0.799126 c -2.7e-5,0.810083 -0.01099,1.264847 -0.04654,1.9304 -0.112733,2.110692 -0.417436,4.185322 -0.875693,5.962328 l -0.06866,0.266251 h -0.10447 c -0.08833,0 -0.103278,-0.0031 -0.09675,-0.02011 z"
     id="path869"
     transform="scale(0.75000002)" />
  <path
     style="fill:#01ff90;fill-opacity:1;stroke-width:0.0131543"
     d="m 31.282478,76.087947 c -0.332151,-0.04683 -0.631427,-0.157145 -0.900517,-0.33193 -0.121204,-0.07873 -0.34057,-0.299098 -0.421197,-0.423126 -0.325856,-0.501261 -0.498267,-1.344736 -0.605063,-2.960098 -0.05239,-0.792387 -0.08431,-1.63125 -0.139171,-3.656906 -0.03639,-1.343679 -0.02932,-3.602458 0.01424,-4.551401 0.07775,-1.693564 0.246378,-2.758307 0.525834,-3.320194 0.123476,-0.248267 0.228962,-0.355689 0.455313,-0.463669 0.135934,-0.06485 0.189476,-0.07608 0.09056,-0.019 -0.144487,0.08337 -0.297773,0.24325 -0.402743,0.420056 -0.307927,0.518656 -0.457502,1.387983 -0.524327,3.047375 -0.07203,1.788672 -0.06454,6.370199 0.01306,7.991261 0.03141,0.656141 0.0801,1.266753 0.132159,1.657446 0.202517,1.51983 0.585831,2.179404 1.402395,2.413124 0.336508,0.09632 0.971632,0.140816 1.406225,0.09853 0.805492,-0.07838 1.514098,-0.472564 2.052756,-1.141903 0.595365,-0.739805 1.005761,-1.770539 1.268155,-3.185046 0.05604,-0.302092 0.06537,-0.294866 0.02548,0.01973 -0.187968,1.482527 -0.519803,2.414089 -1.129186,3.169974 -0.103538,0.12843 -0.384911,0.416305 -0.494995,0.506435 -0.419281,0.34328 -1.063493,0.602008 -1.775421,0.713044 -0.230388,0.03593 -0.789316,0.0451 -0.993567,0.0163 z"
     id="path871"
     transform="scale(0.75000002)" />
  <path
     style="fill:#01ff90;fill-opacity:1;stroke-width:0.0131543"
     d="m 35.803798,65.934511 c -0.03691,-0.480544 -0.112606,-1.29572 -0.147867,-1.592442 -0.307283,-2.585729 -1.057142,-3.668643 -2.772924,-4.004537 -0.357665,-0.07002 -1.065549,-0.155821 -1.488717,-0.180446 l -0.171007,-0.01 0.151275,-0.01131 c 0.198751,-0.01485 0.720007,-0.0022 0.960267,0.02326 1.296285,0.137514 2.145343,0.565746 2.647044,1.335067 0.485735,0.74484 0.729175,1.88987 0.825023,3.88053 0.01782,0.3701 0.03214,0.855032 0.02526,0.855032 -0.0031,0 -0.01588,-0.132843 -0.02835,-0.295206 z"
     id="path873"
     transform="scale(0.75000002)" />
  <path
     style="fill:#01ff90;fill-opacity:1;stroke-width:0.00930152"
     d="m 29.332883,95.186678 c -0.0022,-0.608907 0.0097,-1.745576 0.0255,-2.4463 0.05201,-2.29964 0.17581,-3.357807 0.460313,-3.934544 0.184563,-0.37414 0.431835,-0.547947 0.872685,-0.613407 0.138698,-0.02059 0.193038,-0.01814 0.08812,0.004 -1.013473,0.213688 -1.316227,1.326949 -1.411548,5.190425 -0.0095,0.383437 -0.02753,1.603579 -0.03099,2.092842 -0.0011,0.156033 -0.0029,0.02418 -0.0041,-0.292998 z"
     id="path875"
     transform="scale(0.75000002)" />
  <path
     style="fill:#01ff90;fill-opacity:1;stroke-width:0.00930152"
     d="m 36.912153,95.542461 c -0.350975,-2.517285 -1.14974,-4.610578 -2.240497,-5.871585 -0.663432,-0.766983 -1.425886,-1.232954 -2.266909,-1.385413 -0.224045,-0.04061 -0.73825,-0.103946 -0.976659,-0.12029 -0.03069,-0.0021 0.04883,-0.0022 0.176729,-1.27e-4 2.180478,0.03468 3.487843,1.143416 4.566923,3.873067 0.445041,1.12578 0.633177,1.835498 0.743405,2.804409 0.02464,0.216555 0.05666,0.582609 0.06592,0.753423 0.003,0.05627 0.0076,0.11592 0.01019,0.132547 0.0043,0.02818 0.0028,0.03023 -0.02215,0.03023 h -0.02679 z"
     id="path877"
     transform="scale(0.75000002)" />
  <path
     style="fill:#01ff90;fill-opacity:1;stroke-width:0.0110485"
     d="m 31.28619,109.29087 c -0.102883,-0.0109 -0.306416,-0.0514 -0.413097,-0.0821 -0.297223,-0.0856 -0.559855,-0.23245 -0.765366,-0.42802 -0.266277,-0.2534 -0.43158,-0.55312 -0.52925,-0.95963 -0.156359,-0.65078 -0.224223,-1.94025 -0.23598,-4.4838 -0.0039,-0.85103 -0.0033,-0.91235 0.0047,-0.42537 0.03677,2.24937 0.110519,3.48801 0.260492,4.37523 0.1864,1.10271 0.494352,1.6263 1.061417,1.80467 0.18395,0.0579 0.271238,0.0676 0.600505,0.0673 0.319277,-3.5e-4 0.479006,-0.0137 0.928078,-0.0775 0.474052,-0.0674 0.864427,-0.19771 1.254642,-0.4189 1.098725,-0.62278 2.008761,-1.8798 2.660129,-3.6744 0.346558,-0.95481 0.606627,-2.02504 0.786466,-3.23645 0.04628,-0.31178 0.04793,-0.26314 0.0054,0.16087 -0.136127,1.35848 -0.373815,2.48782 -0.718173,3.41231 -0.213049,0.57197 -0.509987,1.15489 -0.808152,1.58649 -0.373263,0.5403 -0.807497,1.00042 -1.324198,1.40313 -0.699216,0.54496 -1.341026,0.84361 -2.055029,0.95627 -0.112166,0.0177 -0.604241,0.0315 -0.712631,0.0199 z"
     id="path885"
     transform="scale(0.75000002)" />
  <path
     style="fill:#01ff90;fill-opacity:1;stroke-width:0.015625"
     d="M 56.001299,108.40168 V 94.143868 h 0.125 0.125 v 14.125002 14.125 h 6.40625 6.40625 v -14.125 -14.125002 h 0.132812 0.132813 v 14.257812 14.25781 h -6.664063 -6.664062 z"
     id="path887"
     transform="scale(0.75000002)" />
  <path
     style="fill:#01ff90;fill-opacity:1;stroke-width:0.03125"
     d="m 69.076339,71.320196 v -22.8125 h 0.125 0.125 v 22.8125 22.8125 h -0.125 -0.125 z"
     id="path889"
     transform="scale(0.75000002)" />
  <path
     style="fill:#01ff90;fill-opacity:1;stroke-width:0.03125"
     d="m 56.013839,71.070196 v -23.0625 h 6.65625 6.65625 v 0.25 0.25 h -0.125 -0.125 v -0.125 -0.125 h -6.421875 -6.421875 v 22.9375 22.9375 h -0.109375 -0.109375 z"
     id="path891"
     transform="scale(0.75000002)" />
  <path
     style="fill:#01ff90;fill-opacity:1;stroke-width:0.03125"
     d="M 82.692815,75.250055 V 62.64068 H 78.02094 73.349065 v -7.3125 -7.3125 h 15.984375 15.98437 l -3.1e-4,4.882813 c -3.1e-4,4.905674 -0.0223,6.330693 -0.11064,7.176038 -0.11149,1.066419 -0.31493,1.655772 -0.69297,2.007456 -0.19984,0.185909 -0.32318,0.257725 -0.60495,0.352248 -0.55448,0.186003 -0.56155,0.186373 -3.70052,0.193384 l -2.874996,0.0064 1.75,-0.05646 c 3.810616,-0.122939 3.942596,-0.130773 4.473886,-0.265545 1.0161,-0.257755 1.34956,-0.897718 1.48151,-2.843231 0.0211,-0.311624 0.0402,-2.516206 0.0505,-5.851562 l 0.0166,-5.351563 H 89.305653 73.505315 v 7.15625 7.15625 h 4.609375 4.609375 v 12.640625 c 0,6.952344 -0.007,12.640625 -0.01563,12.640625 -0.0086,0 -0.01563,-5.674219 -0.01563,-12.609375 z"
     id="path893"
     transform="scale(0.75000002)" />
  <path
     style="fill:#01ff90;fill-opacity:1;stroke-width:0.0078125"
     d="m 82.667289,68.638945 v -5.972657 h -4.664063 -4.664062 l 0.0019,-1.501953 0.0019,-1.501953 0.002,1.490235 0.002,1.490234 h 4.671855 4.671855 v 5.984375 c 0,5.314236 -0.0013,5.984375 -0.01172,5.984375 -0.01041,0 -0.01172,-0.668837 -0.01172,-5.972656 z"
     id="path897"
     transform="scale(0.75000002)" />
  <path
     style="fill:#01ff90;fill-opacity:1;stroke-width:0.00390625"
     d="m 82.725714,66.659635 v -3.736328 h 0.0098 0.0098 v 3.736328 3.736328 h -0.0098 -0.0098 z"
     id="path901"
     transform="scale(0.75000002)" />
  <path
     style="fill:#01ff90;fill-opacity:1;stroke-width:0.00390625"
     d="m 82.725422,62.749205 v -0.173828 h -2.347656 c -2.345052,0 -2.347656,-9e-6 -2.347656,-0.0078 0,-0.0078 0.0026,-0.0078 2.357422,-0.0078 h 2.357422 v 0.181641 0.18164 h -0.0098 -0.0098 z"
     id="path903"
     transform="scale(0.75000002)" />
  <path
     style="fill:#01ff90;fill-opacity:1;stroke-width:0.00390625"
     d="m 97.334069,62.637469 v -0.02754 h 0.03114 c 0.01713,0 0.144129,-0.0035 0.282226,-0.0078 0.138098,-0.0043 0.539367,-0.01657 0.891711,-0.02731 0.352344,-0.01074 0.957031,-0.0292 1.34375,-0.04101 0.683524,-0.02088 1.015484,-0.03059 1.470704,-0.04302 0.12139,-0.0033 0.27432,-0.0077 0.33984,-0.0097 0.0655,-0.002 0.15782,-0.0045 0.20508,-0.0055 0.0832,-0.0017 0.084,-0.0017 0.0234,0.0016 -0.16842,0.0091 -1.05983,0.0409 -1.970705,0.07023 -0.200879,0.0065 -0.412695,0.01344 -0.470703,0.01548 -0.05801,0.002 -0.556347,0.01797 -1.107422,0.03538 -0.551074,0.01741 -1.008984,0.03298 -1.017578,0.0346 -0.0086,0.0016 0.219043,0.0024 0.50586,0.0017 0.286816,-6.95e-4 1.270312,-0.003 2.185548,-0.0052 1.62306,-0.0039 2.21424,-0.0074 2.56836,-0.01543 0.43336,-0.0098 0.67951,-0.02664 0.86453,-0.0591 0.0409,-0.0072 0.055,-0.0076 0.049,-0.0016 -0.006,0.0056 -0.17587,0.03207 -0.3002,0.04674 -0.19033,0.02246 -0.4072,0.03825 -0.67383,0.04908 -0.30285,0.01229 -0.41271,0.01286 -2.799804,0.0144 l -2.420898,0.0016 z"
     id="path907"
     transform="scale(0.75000002)" />
  <path
     style="fill:#01ff90;fill-opacity:1;stroke-width:0.00390625"
     d="m 105.06996,50.804242 v -2.535157 h 0.0175 0.0175 l -0.002,0.430664 c -0.003,0.545796 -0.0134,4.081177 -0.0134,4.400391 l 10e-6,0.239258 h -0.01 -0.01 z"
     id="path909"
     transform="scale(0.75000002)" />
  <path
     style="fill:#01ff90;fill-opacity:1;stroke-width:0.00390625"
     d="m 105.31996,50.677289 v -2.66211 h -4.43164 c -3.936634,0 -4.431643,-6.54e-4 -4.431643,-0.0059 0,-0.0052 0.49566,-0.0059 4.437503,-0.0059 h 4.4375 v 2.667969 c 0,2.368924 -6.6e-4,2.667969 -0.006,2.667969 -0.005,0 -0.006,-0.298394 -0.006,-2.662109 z"
     id="path914"
     transform="scale(0.75000002)" />
  <path
     style="fill:#01ff90;fill-opacity:1;stroke-width:0.00390625"
     d="m 103.52916,62.549392 c -0.003,-0.0012 0.0197,-0.008 0.0508,-0.01506 0.0819,-0.01862 0.15405,-0.03982 0.2908,-0.0854 0.14755,-0.04918 0.22275,-0.07859 0.30469,-0.119159 0.13078,-0.06475 0.25871,-0.162034 0.38871,-0.295587 0.31317,-0.321718 0.49715,-0.823579 0.60917,-1.661641 0.0777,-0.581343 0.10746,-1.193001 0.12747,-2.620117 l 0.003,-0.18457 h 0.0114 0.0114 l -0.002,0.145507 c -0.001,0.08003 -0.004,0.252735 -0.006,0.383789 -0.0256,1.587676 -0.10983,2.487214 -0.29086,3.107422 -0.14174,0.485589 -0.35008,0.8104 -0.66093,1.030376 -0.10498,0.07429 -0.24403,0.146104 -0.38269,0.197645 -0.10858,0.04036 -0.25485,0.08168 -0.38134,0.107734 -0.0598,0.01232 -0.0634,0.01277 -0.0729,0.0091 z"
     id="path916"
     transform="scale(0.75000002)" />
  <path
     style="fill:#01ff90;fill-opacity:1;stroke-width:0.00390625"
     d="m 104.87273,60.77847 c 10e-6,-0.003 0.006,-0.03653 0.0135,-0.07442 0.0833,-0.426372 0.13173,-0.967282 0.16195,-1.808071 0.003,-0.07863 0.003,-0.0805 0.004,-0.02925 7.8e-4,0.07105 -0.006,0.386406 -0.0112,0.511675 -0.0109,0.266941 -0.0551,0.728808 -0.0977,1.020621 -0.0146,0.09975 -0.0348,0.218547 -0.0531,0.311411 -0.0128,0.06488 -0.0171,0.08228 -0.017,0.06803 z"
     id="path918"
     transform="scale(0.75000002)" />
  <path
     style="fill:#01ff90;fill-opacity:1;stroke-width:0.00390625"
     d="m 103.81442,62.226422 c 9e-4,-8.75e-4 0.0225,-0.0099 0.048,-0.02011 0.0651,-0.02603 0.17469,-0.08095 0.23654,-0.118561 0.22772,-0.138485 0.39704,-0.324243 0.53146,-0.583088 0.0193,-0.03721 0.0352,-0.06517 0.0352,-0.06213 4e-5,0.003 -0.0146,0.0338 -0.0326,0.06836 -0.0777,0.149322 -0.15477,0.258569 -0.25639,0.363182 -0.12462,0.12829 -0.25917,0.222702 -0.42774,0.300147 -0.0758,0.03483 -0.14358,0.06115 -0.13444,0.05221 z"
     id="path924"
     transform="scale(0.75000002)" />
  <path
     style="fill:#01ff90;fill-opacity:1;stroke-width:0.00390625"
     d="m 102.65589,62.436683 c 0.30904,-0.02419 0.58655,-0.06062 0.77344,-0.101539 0.0868,-0.019 0.10321,-0.02051 0.0371,-0.0034 -0.15109,0.03907 -0.33166,0.06846 -0.53711,0.08741 -0.12147,0.01121 -0.29454,0.02381 -0.31909,0.02323 -0.0114,-2.69e-4 0.009,-0.0028 0.0456,-0.0057 z"
     id="path936"
     transform="scale(0.75000002)" />
  <path
     style="fill:#01ff90;fill-opacity:1;stroke-width:0.0110485"
     d="m 82.677644,115.42998 v -7.2368 h 0.03315 0.03314 v 7.09869 7.09869 h 7.292039 7.292039 v 0.13811 0.13811 h -7.325185 -7.325184 z"
     id="path1104"
     transform="scale(0.75000002)" />
  <path
     style="fill:#01ff90;fill-opacity:1;stroke-width:0.0220971"
     d="M 117.35114,104.92763 V 87.205768 h 0.0994 0.0994 v 17.589282 17.58928 h 7.15945 7.15946 V 104.79505 87.205768 h 0.0552 0.0552 v 17.721862 17.72187 h -7.31413 -7.31414 z"
     id="path1106"
     transform="scale(0.75000002)" />
  <path
     style="fill:#01ff90;fill-opacity:1;stroke-width:0.0220971"
     d="M 131.86092,75.692596 V 64.180013 h 0.0663 0.0663 v 11.512583 11.512582 h -0.0663 -0.0663 z"
     id="path1110"
     transform="scale(0.75000002)" />
  <path
     style="fill:#01ff90;fill-opacity:1;stroke-width:0.0220971"
     d="M 117.34314,75.692596 V 64.180013 h 0.11048 0.11049 v 11.512583 11.512582 h -0.11049 -0.11048 z"
     id="path1112"
     transform="scale(0.75000002)" />
  <path
     style="fill:#01ff90;fill-opacity:1;stroke-width:0.0220971"
     d="m 117.34314,63.417664 v -0.76235 h -4.66249 -4.66248 V 55.33013 48.004946 h 15.98724 15.98724 l -4.4e-4,4.645912 c -6e-4,6.32214 -0.0234,7.166357 -0.22111,8.170456 -0.21623,1.098379 -0.66025,1.56884 -1.6346,1.731901 -0.48655,0.08143 -0.62683,0.08536 -3.39743,0.09523 l -2.74556,0.0098 v 0.760888 0.760888 h -0.0663 -0.0663 V 63.395567 62.61112 h 0.16652 c 0.15821,0 1.50362,-0.03848 3.0928,-0.08846 1.83823,-0.05781 3.1339,-0.178804 3.67169,-0.342864 0.158,-0.0482 0.19246,-0.0685 0.27817,-0.163823 0.40217,-0.447313 0.62249,-1.532572 0.73374,-3.614344 0.0688,-1.288098 0.0818,-2.132366 0.0938,-6.093272 l 0.0122,-4.038242 h -15.9348 -15.93479 v 7.148407 7.148408 h 4.76193 4.76192 v 0.806544 0.806543 h -0.11049 -0.11048 z"
     id="path1114"
     transform="scale(0.75000002)" />
  <path
     style="fill:#01ff90;fill-opacity:1;stroke-width:0.0110485"
     d="M 145.33908,70.012275 V 59.444343 h 0.10496 0.10496 v 10.567932 10.567932 h -0.10496 -0.10496 z"
     id="path1122"
     transform="scale(0.75000002)" />
  <path
     style="fill:#01ff90;fill-opacity:1;stroke-width:0.0110485"
     d="m 145.33353,53.721904 v -5.717621 h 9.17581 9.17582 v 0.132583 0.132582 h -9.07086 -9.07085 v 5.585039 5.585038 h -0.10496 -0.10496 z"
     id="path1124"
     transform="scale(0.75000002)" />
  <path
     style="fill:#01ff90;fill-opacity:1;stroke-width:0.03125"
     d="m 173.23281,80.623503 v -3.203125 h -6.6875 -6.6875 v -7.421875 -7.421875 h 7.29688 7.29687 v -7.15625 -7.15625 h -5.375 -5.375 v -0.125 -0.125 h 5.46875 5.46875 v 7.3125 7.3125 h -7.32812 -7.32813 v 7.359375 7.359375 h 6.67188 6.67187 v 3.234375 c 0,2.854166 -0.006,3.234375 -0.0469,3.234375 -0.0414,0 -0.0469,-0.376737 -0.0469,-3.203125 z"
     id="path1126"
     transform="scale(0.75000002)" />
  <path
     style="fill:#01ff90;fill-opacity:1;stroke-width:0.0110485"
     d="m 145.33695,84.644361 v -4.06034 h 0.10496 0.10496 v 4.06034 4.06034 h -0.10496 -0.10496 z"
     id="path1128"
     transform="scale(0.75000002)" />
  <path
     style="fill:#01ff90;fill-opacity:1;stroke-width:0.015625"
     d="M 145.34885,104.5467 V 89.601391 h 0.0937 0.0937 v 14.945309 14.94532 h -0.0937 -0.0937 z"
     id="path1130"
     transform="scale(0.75000002)" />
  <path
     style="fill:#01ff90;fill-opacity:1;stroke-width:0.0110485"
     d="m 145.33804,121.0741 -2e-5,-1.5827 0.0994,0.004 0.0995,0.004 0.003,-6.7542 0.003,-6.75421 0.003,8.20078 0.003,8.20078 h 8.66206 8.66206 v 0.13259 0.13258 h -8.76702 -8.76702 l -3e-5,-1.58271 z"
     id="path1132"
     transform="scale(0.75000002)" />
  <path
     style="fill:#01ff90;fill-opacity:1;stroke-width:0.015625"
     d="m 162.87497,122.53222 v -0.13279 l 5.77735,-0.004 5.77734,-0.004 v -7.14843 -7.14844 l -7.29297,-0.004 -7.29297,-0.004 v -4.3906 -4.390613 h 0.0781 0.0781 v 4.351563 4.35156 h 7.32813 7.32812 v 7.32813 7.32812 h -5.89062 -5.89063 z"
     id="path1134"
     transform="scale(0.75000002)" />
  <path
     style="fill:#01ff90;fill-opacity:1;stroke-width:0.015625"
     d="m 159.84372,94.922825 v -4.382813 h 6.69531 6.69532 l 0.002,-3.464844 c 0.001,-1.905664 0.007,-3.417951 0.0117,-3.360639 0.009,0.103775 0.0223,0.137991 0.0443,0.116012 0.006,-0.0064 0.0158,-0.07608 0.0209,-0.154948 0.005,-0.07887 0.0105,1.461489 0.0119,3.423013 l 0.003,3.566406 h -6.66407 -6.66406 v 4.320313 4.320312 h -0.0781 -0.0781 z"
     id="path1136"
     transform="scale(0.75000002)" />
  <path
     style="fill:#01ff90;fill-opacity:1;stroke-width:0.00390625"
     d="m 174.42238,51.759196 v -3.492188 h 0.0137 0.0137 v 3.492188 3.492187 h -0.0137 -0.0137 z"
     id="path1138"
     transform="scale(0.75000002)" />
  <path
     style="fill:#01ff90;fill-opacity:1;stroke-width:0.00390625"
     d="m 174.64113,51.632243 v -3.619141 h -3.65235 c -3.24392,0 -3.65234,-6.55e-4 -3.65234,-0.0059 0,-0.0052 0.40972,-0.0059 3.66406,-0.0059 h 3.66406 v 3.625 3.625 h -0.0117 -0.0117 z"
     id="path1142"
     transform="scale(0.75000002)" />
  <path
     style="fill:#01ff90;fill-opacity:1;stroke-width:0.00390625"
     d="m 174.42413,58.026071 v -2.773438 h 0.0137 0.0137 v 2.773438 2.773437 h -0.0137 -0.0137 z"
     id="path1144"
     transform="scale(0.75000002)" />
  <path
     style="fill:#01ff90;fill-opacity:1;stroke-width:0.00390625"
     d="m 174.64288,58.026071 v -2.773438 h 0.0117 0.0117 v 2.773438 2.773437 h -0.0117 -0.0117 z"
     id="path1146"
     transform="scale(0.75000002)" />
  <path
     style="fill:#01ff90;fill-opacity:1;stroke-width:0.00390625"
     d="m 167.20148,62.565133 c 0,-0.0078 0.003,-0.0078 3.61133,-0.0078 h 3.61132 V 61.678426 60.79952 h 0.0137 0.0137 v 0.886719 0.886719 h -3.625 c -3.6224,0 -3.625,-6e-6 -3.625,-0.0078 z"
     id="path1148"
     transform="scale(0.75000002)" />
  <path
     style="fill:#01ff90;fill-opacity:1;stroke-width:0.00390625"
     d="m 167.20148,62.653024 v -0.01367 h 3.7207 3.7207 V 61.71943 60.799508 h 0.0117 0.0117 v 0.933594 0.933594 h -3.73242 -3.73242 z"
     id="path1150"
     transform="scale(0.75000002)" />
  <path
     style="fill:#01ff90;fill-opacity:1;stroke-width:0.00390625"
     d="m 180.28255,60.288079 c 3e-5,-0.04026 0.0321,-1.156439 0.0489,-1.702148 0.0676,-2.195279 0.1482,-4.145844 0.23044,-5.579126 0.005,-0.09293 0.01,-0.170717 0.01,-0.172852 0,-0.0024 0.0283,-0.0039 0.0762,-0.0039 h 0.0762 l -2e-5,0.0166 c -2e-5,0.0091 -0.002,0.04473 -0.004,0.0791 -0.0176,0.285035 -0.0616,1.240154 -0.0898,1.949219 -0.0547,1.376983 -0.11915,3.449311 -0.1582,5.085938 -0.003,0.139648 -0.007,0.273681 -0.008,0.297851 l -0.002,0.04395 h -0.0895 -0.0895 l 1e-5,-0.01465 z"
     id="path1152"
     transform="scale(0.75000002)" />
  <path
     style="fill:#01ff90;fill-opacity:1;stroke-width:0.00390625"
     d="m 180.57275,52.810384 c 10e-4,-0.01161 0.007,-0.0967 0.012,-0.189083 0.0546,-0.933452 0.12861,-1.864465 0.1973,-2.480468 0.082,-0.735728 0.17294,-1.190561 0.26195,-1.310762 0.0469,-0.06339 0.14466,-0.114816 0.31904,-0.167911 0.57524,-0.175141 1.94813,-0.32011 3.82695,-0.404102 0.0752,-0.0034 0.17363,-0.0078 0.21875,-0.0099 0.0451,-0.0021 0.093,-0.0038 0.10644,-0.0038 l 0.0244,-1.1e-5 v 0.128907 0.128906 l -0.0166,1.1e-5 c -0.009,6e-6 -0.0764,0.0017 -0.14942,0.0038 -0.073,0.0021 -0.19785,0.0057 -0.27734,0.0079 -1.88793,0.05346 -3.084,0.139593 -3.36654,0.242436 -0.0369,0.01343 -0.0653,0.02905 -0.12636,0.0694 -0.19172,0.126779 -0.32845,0.301232 -0.42913,0.547514 -0.0265,0.0648 -0.0762,0.216587 -0.0991,0.302734 -0.0866,0.325518 -0.15825,0.788727 -0.22868,1.478516 -0.038,0.372377 -0.0789,0.923963 -0.11216,1.514648 l -0.009,0.157227 h -0.0298 c -0.0164,0 -0.0512,0.0012 -0.0774,0.0026 l -0.0476,0.0026 z"
     id="path1154"
     transform="scale(0.75000002)" />
  <path
     style="fill:#01ff90;fill-opacity:1;stroke-width:0.0078125"
     d="m 201.95942,48.681574 c -1.6625,-0.09832 -4.36885,-0.174284 -7.79297,-0.218733 -1.0043,-0.01304 -4.74618,-0.01816 -5.78907,-0.0079 -1.14931,0.01128 -2.55977,0.03379 -2.75195,0.04392 l -0.0801,0.0042 v -0.128366 -0.128366 l 0.0957,-0.0048 c 0.15578,-0.0079 0.49765,-0.01939 0.94336,-0.03179 1.24386,-0.03462 2.34664,-0.04621 3.84375,-0.0404 2.11745,0.0082 3.41145,0.03705 6.37109,0.141937 1.70952,0.06059 3.12245,0.120259 4.25391,0.179658 0.5342,0.02804 1.15332,0.06413 1.21679,0.07091 l 0.041,0.0044 v 0.06584 0.06584 l -0.0566,-0.0011 c -0.0312,-6.11e-4 -0.16387,-0.0075 -0.29492,-0.0152 z"
     id="path1156"
     transform="scale(0.75000002)" />
  <path
     style="fill:#01ff90;fill-opacity:1;stroke-width:0.0220971"
     d="m 215.78615,70.697143 c 0.012,-2.448146 -0.0326,-4.142955 -0.17437,-6.617465 -0.15791,-2.756981 -0.40632,-5.139971 -0.69582,-6.674938 -0.4368,-2.31597 -1.36574,-4.108606 -2.90789,-5.611558 -1.60945,-1.568544 -3.09842,-2.243516 -5.94109,-2.69318 -1.05039,-0.166156 -2.45447,-0.325378 -3.32561,-0.377123 -0.38583,-0.02292 -0.40879,-0.02817 -0.40879,-0.09343 v -0.0569 l 0.23754,0.01509 c 1.49175,0.09476 3.05355,0.255225 4.01387,0.412398 2.13179,0.348909 3.39388,0.833551 4.57997,1.758706 0.6794,0.529936 1.64816,1.516932 2.16535,2.206109 1.40263,1.869094 1.94469,4.153041 2.35997,9.943689 0.21853,3.047129 0.34556,6.617792 0.30954,8.700728 l -0.0156,0.900456 h -0.103 -0.10301 z"
     id="path1160"
     transform="scale(0.75000002)" />
  <path
     style="fill:#01ff90;fill-opacity:1;stroke-width:0.00390625"
     d="m 194.46362,65.781643 c 0.001,-0.0091 0.004,-0.04736 0.006,-0.08496 0.0184,-0.302241 0.0591,-0.680383 0.10556,-0.980469 0.14572,-0.94058 0.40378,-1.685404 0.78002,-2.251288 0.20538,-0.308886 0.43517,-0.550524 0.74317,-0.781485 0.60841,-0.456216 1.29544,-0.656745 2.00782,-0.586043 0.53575,0.05317 1.07718,0.258053 1.59765,0.604569 0.27591,0.183689 0.52756,0.392629 0.7931,0.658497 0.25685,0.257159 0.47683,0.516374 0.69972,0.8245 0.45918,0.634786 0.82169,1.422323 1.07706,2.339844 0.0228,0.08209 0.0708,0.265409 0.0708,0.270749 0,0.0015 -0.0175,0.0027 -0.0388,0.0027 h -0.0388 l -0.01,-0.03223 c -0.005,-0.01772 -0.024,-0.08057 -0.0415,-0.139649 -0.0368,-0.123907 -0.13031,-0.406477 -0.17324,-0.523437 -0.18216,-0.496343 -0.38377,-0.933243 -0.62187,-1.347656 -0.66206,-1.152336 -1.52444,-1.978347 -2.45502,-2.351484 -0.0973,-0.03901 -0.24993,-0.09033 -0.34765,-0.116879 -0.98537,-0.267724 -1.95276,-0.0055 -2.79297,0.756947 -0.067,0.06077 -0.28716,0.280436 -0.32526,0.324481 -0.42536,0.491701 -0.71781,1.526647 -0.84448,2.988497 -0.01,0.115544 -0.0235,0.298493 -0.0275,0.373047 -0.001,0.02363 -0.003,0.04868 -0.004,0.05566 l -0.002,0.01269 h -0.0798 -0.0798 z"
     id="path1162"
     transform="scale(0.75000002)" />
  <path
     style="fill:#01ff90;fill-opacity:1;stroke-width:0.015625"
     d="m 197.46351,75.794097 c -0.31454,-0.03207 -0.61268,-0.118584 -0.80747,-0.234309 -0.62495,-0.371276 -1.1607,-1.419781 -1.55248,-3.038368 -0.4121,-1.702508 -0.69201,-4.279112 -0.65786,-6.055729 0.005,-0.279803 0.0143,-0.541717 0.0198,-0.582031 l 0.0101,-0.0733 h 0.0705 0.0705 l -0.0101,0.167969 c -0.0228,0.379001 -0.0291,1.345332 -0.0119,1.824219 0.11271,3.141418 0.69193,5.925518 1.48232,7.125 0.11589,0.175867 0.34574,0.416749 0.46188,0.484039 0.18166,0.105255 0.60926,0.231594 0.95596,0.282453 0.22714,0.03332 0.66853,0.03769 0.88281,0.0087 0.54538,-0.07368 1.09077,-0.282488 1.56414,-0.598837 1.13473,-0.758323 1.99865,-2.115496 2.43472,-3.824832 0.091,-0.356831 0.1021,-0.353722 0.0246,0.0069 -0.23458,1.090765 -0.65346,2.113217 -1.15175,2.811322 -0.23878,0.334529 -0.53685,0.64939 -0.81588,0.861832 -0.5426,0.413109 -1.30374,0.706061 -2.11046,0.812281 -0.2305,0.03035 -0.67024,0.04194 -0.85938,0.02266 z"
     id="path1164"
     transform="scale(0.75000002)" />
  <path
     style="fill:#01ff90;fill-opacity:1;stroke-width:0.00552427"
     d="m 202.41294,71.117112 c -2.4e-4,-0.0026 0.0106,-0.05483 0.0241,-0.116009 0.12495,-0.567183 0.19707,-1.138914 0.22413,-1.776797 0.007,-0.167828 0.007,-0.680671 0,-0.861786 -0.0341,-0.867479 -0.15683,-1.691057 -0.3678,-2.468326 -0.0135,-0.04957 -0.0245,-0.09121 -0.0245,-0.09253 0,-0.0013 0.0172,-0.0024 0.0382,-0.0024 h 0.0382 l 0.0195,0.08148 c 0.14484,0.604498 0.24445,1.27809 0.28775,1.945925 0.018,0.277265 0.0206,0.357634 0.0234,0.729204 0.005,0.685945 -0.0268,1.214109 -0.11195,1.839582 -0.0296,0.217747 -0.10465,0.659383 -0.10672,0.628386 -10e-4,-0.02136 -0.0119,-0.0075 -0.0228,0.03038 -0.0145,0.05016 -0.021,0.06903 -0.0216,0.06289 z"
     id="path1166"
     transform="scale(0.75000002)" />
  <path
     style="fill:#01ff90;fill-opacity:1;stroke-width:0.00390625"
     d="m 197.63008,75.810328 c -0.0397,-0.0019 -0.0775,-0.004 -0.084,-0.0046 -0.006,-6.26e-4 0.0691,-0.0013 0.16797,-0.0015 0.39224,-8.47e-4 0.61704,-0.02166 0.94922,-0.08787 0.67265,-0.134077 1.29292,-0.396504 1.75179,-0.741152 0.13092,-0.09834 0.22074,-0.177597 0.36559,-0.322615 0.21487,-0.215125 0.38299,-0.4201 0.55132,-0.672199 0.43429,-0.650405 0.80168,-1.54577 1.02822,-2.505859 0.0361,-0.152986 0.0755,-0.339085 0.0919,-0.43457 0.001,-0.0081 0.004,-0.01465 0.006,-0.01465 0.002,0 0.003,0.004 0.002,0.0088 -0.001,0.0048 -0.0127,0.06132 -0.0256,0.125525 -0.0315,0.155791 -0.067,0.311193 -0.10895,0.477014 -0.32049,1.26604 -0.83397,2.293264 -1.4834,2.96756 -0.29707,0.308438 -0.59257,0.524391 -0.97972,0.715981 -0.5575,0.275883 -1.20723,0.447447 -1.8418,0.486334 -0.0937,0.0057 -0.30695,0.0078 -0.39063,0.0038 z"
     id="path1170"
     transform="scale(0.75000002)" />
  <path
     style="fill:#01ff90;fill-opacity:1;stroke-width:0.0220971"
     d="m 211.18385,84.327436 c -0.0768,-0.150572 -0.1314,-0.328255 -0.1314,-0.427742 0,-0.133087 0.0683,-0.315741 0.27455,-0.734617 0.36687,-0.744922 0.87814,-1.590316 1.80133,-2.978525 0.90746,-1.364545 1.36185,-2.11594 1.72378,-2.850524 0.4834,-0.981103 0.64335,-1.521297 0.76224,-2.574311 0.0562,-0.497578 0.14418,-1.801762 0.14462,-2.143417 l 1.3e-4,-0.09944 0.1126,0.0078 0.1126,0.0078 -0.0126,0.168978 c -0.007,0.09294 -0.0183,0.288303 -0.0254,0.434143 -0.007,0.145841 -0.0325,0.483927 -0.0565,0.751301 -0.18714,2.085438 -0.63056,3.470415 -1.60352,5.008512 -0.21773,0.344201 -0.47784,0.713548 -0.86898,1.233915 -1.52111,2.023667 -2.00939,2.791061 -2.19334,3.447146 -0.0577,0.205694 -0.0622,0.551936 -0.009,0.717124 0.0447,0.13969 0.0313,0.153573 -0.0308,0.03186 z"
     id="path1172"
     transform="scale(0.75000002)" />
  <path
     style="fill:#01ff90;fill-opacity:1;stroke-width:0.0220971"
     d="m 215.48523,100.24518 c -0.008,-0.17926 -0.0341,-0.778367 -0.0583,-1.331347 -0.18273,-4.189091 -0.35542,-6.39051 -0.64136,-8.175922 -0.3844,-2.400171 -0.92437,-3.524641 -2.34417,-4.881601 -0.26407,-0.252388 -0.72691,-0.750959 -0.74585,-0.803438 -0.005,-0.0133 0.0847,0.05857 0.19887,0.159697 0.11418,0.101129 0.42139,0.343554 0.68269,0.538722 0.72136,0.538797 1.08047,0.921257 1.40868,1.500295 0.77973,1.375587 1.18622,3.907922 1.49607,9.319956 0.0703,1.227451 0.18875,3.671268 0.18881,3.894608 l 3e-5,0.10496 h -0.0856 -0.0856 z"
     id="path1174"
     transform="scale(0.75000002)" />
  <path
     style="fill:#01ff90;fill-opacity:1;stroke-width:0.00552427"
     d="m 194.78341,96.316792 c 0.002,-0.0433 0.004,-0.133411 0.006,-0.200255 0.008,-0.324518 0.0241,-0.878522 0.036,-1.229151 0.12537,-3.684922 0.33211,-5.53697 0.67681,-6.063374 0.0327,-0.0499 0.0931,-0.107159 0.1436,-0.136041 0.26713,-0.15282 0.66978,-0.187621 1.16814,-0.10096 0.72723,0.126458 1.60469,0.502269 2.33953,1.002002 0.42332,0.287881 0.77882,0.605439 1.02937,0.91952 0.19133,0.23984 0.30039,0.443047 0.40961,0.763218 0.2909,0.85274 0.48921,2.244677 0.62688,4.400082 0.0147,0.230675 0.0417,0.69025 0.0417,0.71125 0,0.0115 -0.002,0.01243 -0.0329,0.01243 -0.0329,0 -0.0329,0 -0.0356,-0.01795 -0.001,-0.0099 -0.007,-0.101232 -0.0115,-0.203017 -0.009,-0.196192 -0.0251,-0.475935 -0.039,-0.690534 -0.16896,-2.609163 -0.47191,-4.030137 -1.04526,-4.902791 -0.12278,-0.186869 -0.21893,-0.304423 -0.382,-0.467043 -0.12595,-0.125601 -0.19793,-0.188372 -0.32747,-0.28558 -0.13734,-0.103059 -0.33114,-0.226344 -0.50174,-0.319178 -0.038,-0.02067 -0.0976,-0.05426 -0.13259,-0.07465 -0.63888,-0.372846 -1.36791,-0.626713 -2.00531,-0.698307 -0.20636,-0.02318 -0.47993,-0.02978 -0.62424,-0.01507 -0.24062,0.02453 -0.42605,0.07389 -0.5664,0.150756 -0.0802,0.0439 -0.10186,0.06281 -0.12492,0.108758 -0.21664,0.431827 -0.4331,2.996184 -0.58484,6.928476 -0.009,0.235472 -0.0165,0.441182 -0.0165,0.457133 v 0.029 h -0.0253 -0.0253 z"
     id="path1176"
     transform="scale(0.75000002)" />
  <path
     style="fill:#01ff90;fill-opacity:1;stroke-width:0.00390625"
     d="m 201.29759,100.03885 c -0.001,-0.07466 -0.004,-0.235059 -0.006,-0.356445 -0.0206,-1.188962 -0.0592,-2.494245 -0.0937,-3.166016 -0.002,-0.04082 -0.004,-0.08477 -0.004,-0.09766 l -5e-5,-0.02344 0.0295,0.0013 c 0.019,8.34e-4 0.0315,-3.75e-4 0.0352,-0.0034 0.005,-0.004 0.006,-0.0021 0.006,0.01238 1e-5,0.0094 0.004,0.083 0.008,0.163564 0.0428,0.809451 0.0852,1.939869 0.11525,3.072266 0.003,0.124609 0.008,0.290723 0.01,0.369141 0.002,0.0784 0.004,0.14741 0.004,0.15332 l 1e-5,0.0107 h -0.0503 -0.0503 z"
     id="path1178"
     transform="scale(0.75000002)" />
  <path
     style="fill:#01ff90;fill-opacity:1;stroke-width:0.00552427"
     d="m 201.33624,109.84732 c 0,-2.8191 -0.002,-5.19688 -0.004,-5.28397 l -0.004,-0.15834 h 0.0691 0.0691 l 0.004,0.37979 c 0.0166,1.70398 0.0254,4.30258 0.0255,7.56549 l 6e-5,2.62265 h -0.0801 -0.0801 z"
     id="path1180"
     transform="scale(0.75000002)" />
  <path
     style="fill:#01ff90;fill-opacity:1;stroke-width:0.015625"
     d="m 180.00533,112.76358 v -9.89843 h 0.0362 0.0362 l -0.007,9.76562 -0.007,9.76563 h 7.29895 7.29894 v 0.13281 0.13281 h -7.32813 -7.32812 z"
     id="path1182"
     transform="scale(0.75000002)" />
  <path
     style="fill:#01ff90;fill-opacity:1;stroke-width:0.015625"
     d="m 201.33345,118.81827 v -3.84375 h 0.0781 0.0781 v 1.08335 c 0,0.59583 0.005,2.26576 0.0104,3.71093 l 0.0104,2.6276 h 7.29428 7.29429 l -1.1e-4,-1.14453 c -2.4e-4,-2.39907 -0.10268,-6.57157 -0.32043,-13.05079 -0.0654,-1.94767 -0.17501,-4.97917 -0.18733,-5.18359 l -0.009,-0.15234 h 0.0928 0.0928 l 0.01,0.16797 c 0.0416,0.72129 0.11548,3.56991 0.28347,10.93548 0.10705,4.69322 0.19463,8.5692 0.19463,8.61328 v 0.0801 h -7.46094 -7.46094 z"
     id="path1184"
     transform="scale(0.75000002)" />
  <path
     style="fill:#01ff90;fill-opacity:1;stroke-width:0.0110485"
     d="m 201.3368,104.09687 c -3.3e-4,-0.52551 -0.0206,-2.9897 -0.0285,-3.46372 l -0.008,-0.45575 h 0.0452 c 0.0425,0 0.0455,0.002 0.0507,0.0359 0.005,0.0338 0.0157,0.55408 0.0398,1.96387 0.006,0.33118 0.0131,0.93526 0.0165,1.3424 0.003,0.40714 0.009,0.77133 0.0117,0.80931 l 0.006,0.0691 h -0.0666 -0.0666 z"
     id="path1186"
     transform="scale(0.75000002)" />
  <path
     style="fill:#01ff90;fill-opacity:1;stroke-width:0.0110485"
     d="m 215.58168,102.76887 c -0.005,-0.074 -0.043,-1.0177 -0.0806,-2.01636 l -0.007,-0.17954 h 0.0894 0.0894 l 0.003,-0.0414 c 0.002,-0.0228 0.007,0.0506 0.0118,0.16297 0.0378,0.92 0.0854,2.11034 0.0855,2.13513 l 5e-5,0.0304 h -0.0929 -0.0929 z"
     id="path1188"
     transform="scale(0.75000002)" />
  <path
     style="fill:#01ff90;fill-opacity:1;stroke-width:0.015625"
     d="m 230.68033,120.73845 0.002,-1.92578 0.0194,1.40625 c 0.0106,0.77344 0.0201,1.58027 0.021,1.79297 l 0.002,0.38672 h 6.48487 c 5.17437,0 6.48604,-0.004 6.49068,-0.0195 0.003,-0.0107 0.042,-2.05507 0.0863,-4.54296 0.0799,-4.49081 0.0949,-5.25821 0.12568,-6.42969 0.069,-2.62566 0.17962,-5.12718 0.31255,-7.07031 0.0435,-0.63609 0.0394,-0.60938 0.0948,-0.60938 0.0564,0 0.0559,-0.0356 0.007,0.48586 -0.13997,1.49609 -0.23322,2.96121 -0.28928,4.54539 -0.0393,1.11098 -0.0468,2.38503 -0.047,7.98047 l -1.5e-4,5.92578 h -6.65625 -6.65625 z"
     id="path1190"
     transform="scale(0.75000002)" />
  <path
     style="fill:#01ff90;fill-opacity:1;stroke-width:0.00552427"
     d="m 230.03748,98.424963 c -0.002,-0.01139 -0.0108,-0.08535 -0.02,-0.164347 -0.0416,-0.35612 -0.12041,-0.979059 -0.17966,-1.419738 -0.34703,-2.581366 -0.79448,-5.235383 -1.43621,-8.518833 -0.047,-0.240252 -0.0854,-0.438505 -0.0854,-0.44056 0,-0.0021 0.0234,-0.0037 0.0521,-0.0037 0.0449,0 0.0525,0.0013 0.0549,0.0097 0.0144,0.04951 0.36639,1.85912 0.53326,2.74142 0.67641,3.57636 1.04457,5.881708 1.2157,7.612446 0.009,0.09267 0.0178,0.17657 0.0191,0.186444 l 0.002,0.01795 h -0.0765 -0.0765 z"
     id="path1192"
     transform="scale(0.75000002)" />
  <path
     style="fill:#01ff90;fill-opacity:1;stroke-width:0.0220971"
     d="m 228.3176,87.843691 c -0.005,-0.01519 -0.0603,-0.286157 -0.12264,-0.602146 -0.3606,-1.826917 -1.05506,-5.070806 -1.70301,-7.954951 -0.73439,-3.268914 -1.08827,-4.783672 -1.78617,-7.645592 -0.35268,-1.446254 -0.64663,-2.651927 -0.65323,-2.679272 -0.0106,-0.04401 -0.004,-0.04972 0.0616,-0.04972 h 0.0736 l 0.0945,0.392223 c 1.74893,7.259777 2.69181,11.467419 3.83507,17.114194 0.27209,1.343886 0.29098,1.452883 0.25183,1.452883 -0.0233,0 -0.0465,-0.01243 -0.0516,-0.02762 z"
     id="path1194"
     transform="scale(0.75000002)" />
  <path
     style="fill:#01ff90;fill-opacity:1;stroke-width:0.0110485"
     d="m 230.41516,102.35604 c -0.0232,-0.39438 -0.12976,-1.61922 -0.21131,-2.429074 -0.0464,-0.46077 -0.14063,-1.325188 -0.15557,-1.427071 l -0.007,-0.04696 h 0.0729 c 0.0666,0 0.0733,0.0021 0.0781,0.02486 0.006,0.02878 0.0407,0.430164 0.0721,0.836927 0.0604,0.780008 0.10833,1.658548 0.15584,2.854148 0.0123,0.30974 0.009,0.42848 -0.005,0.18717 z"
     id="path1196"
     transform="scale(0.75000002)" />
  <path
     style="fill:#01ff90;fill-opacity:1;stroke-width:0.0110485"
     d="m 223.64734,67.322373 c -0.57633,-2.374053 -1.18759,-4.898734 -2.18466,-9.023207 -0.95849,-3.964912 -1.52685,-6.31069 -1.62839,-6.720768 l -0.0637,-0.257371 0.0675,0.0033 0.0675,0.0033 0.10065,0.408796 c 0.0554,0.224838 0.28516,1.157059 0.51068,2.071602 1.02372,4.151642 3.67039,15.033573 3.67039,15.09106 0,0.0076 -0.0244,0.0123 -0.0641,0.0123 -0.0352,0 -0.0688,0.0047 -0.0746,0.01036 -0.007,0.0065 -0.15519,-0.585659 -0.40126,-1.599277 z"
     id="path1198"
     transform="scale(0.75000002)" />
  <path
     style="fill:#01ff90;fill-opacity:1;stroke-width:0.015625"
     d="m 236.79971,69.253905 c -0.28004,-0.601161 -0.46364,-1.39086 -0.85278,-3.667969 -0.23292,-1.362948 -0.3983,-2.445307 -0.7246,-4.742187 -0.72662,-5.114788 -1.17394,-7.752782 -1.60563,-9.46875 -0.22654,-0.900498 -0.40461,-1.372231 -0.66649,-1.765625 -0.13334,-0.200294 -0.39827,-0.467312 -0.58779,-0.592429 -0.61306,-0.404722 -1.53733,-0.601608 -3.26669,-0.695864 -1.34542,-0.07333 -4.4292,-0.07353 -5.90625,-3.73e-4 -2.29099,0.113464 -3.4373,0.393396 -3.6868,0.900329 -0.0744,0.151171 -0.0734,0.274282 0.004,0.560936 0.0349,0.128508 0.13459,0.514901 0.22153,0.858651 0.087,0.34375 0.16164,0.637304 0.16599,0.652343 0.007,0.02288 -0.003,0.02734 -0.0561,0.02734 -0.0377,0 -0.0665,-0.008 -0.0699,-0.01953 -0.003,-0.01074 -0.0884,-0.353516 -0.18938,-0.761719 -0.10092,-0.408203 -0.20704,-0.826194 -0.23581,-0.928868 -0.0605,-0.21593 -0.066,-0.329724 -0.0221,-0.454722 0.22844,-0.649951 1.65417,-0.997736 4.57917,-1.117022 1.04367,-0.04256 3.76493,-0.03343 4.86168,0.01631 2.66891,0.12105 3.7459,0.460362 4.35933,1.373432 0.26836,0.399444 0.49047,0.991053 0.6605,1.759306 0.55716,2.517434 1.193,6.374323 1.50176,9.109375 0.0223,0.197656 0.0755,0.626562 0.1182,0.953125 0.55448,4.240932 0.99082,6.697171 1.39585,7.857485 0.0454,0.129946 0.0878,0.248569 0.0942,0.263608 0.007,0.01721 0.005,0.02734 -0.007,0.02734 -0.0101,0 -0.0487,-0.06504 -0.0857,-0.144531 z"
     id="path1202"
     transform="scale(0.75000002)" />
  <path
     style="fill:#01ff90;fill-opacity:1;stroke-width:0.0110485"
     d="m 244.36047,103.73353 c 0,-0.01 -0.0136,-0.0128 -0.0442,-0.01 l -0.0442,0.004 v -0.0428 c 0,-0.0998 0.0964,-1.17864 0.14974,-1.67584 0.15572,-1.4516 0.56305,-3.994259 1.12706,-7.035471 0.0634,-0.341986 0.11532,-0.624138 0.11532,-0.627004 0,-0.0029 0.02,-0.0052 0.0444,-0.0052 0.0404,0 0.0439,0.0022 0.0387,0.02486 -0.0102,0.044 -0.1903,1.049337 -0.27042,1.509432 -0.47306,2.716559 -0.82824,5.211223 -1.06013,7.446053 -0.0235,0.2267 -0.0458,0.41522 -0.0495,0.41892 -0.004,0.004 -0.007,4e-4 -0.007,-0.007 z"
     id="path1204"
     transform="scale(0.75000002)" />
  <path
     style="fill:#01ff90;fill-opacity:1;stroke-width:0.015625"
     d="m 248.24254,81.934959 c 0,-0.02543 0.33486,-1.512597 0.60754,-2.698168 0.26305,-1.143742 0.40755,-1.760507 1.25316,-5.348761 2.2985,-9.753517 4.30855,-18.468496 4.95947,-21.502801 0.0313,-0.146094 0.0605,-0.27793 0.0648,-0.292969 0.006,-0.02209 0.0256,-0.02734 0.10049,-0.02734 0.051,0 0.0927,0.0035 0.0927,0.0079 0,0.01294 -0.29667,1.343607 -0.51557,2.312463 -1.16794,5.169424 -2.78686,12.089798 -4.52335,19.335937 -0.64434,2.688738 -1.17111,4.929233 -1.6807,7.148438 -0.12827,0.558594 -0.23693,1.031445 -0.24147,1.050781 -0.007,0.02814 -0.0191,0.03516 -0.0626,0.03516 -0.0346,0 -0.0544,-0.0075 -0.0544,-0.02058 z"
     id="path1206"
     transform="scale(0.75000002)" />
  <path
     style="fill:#01ff90;fill-opacity:1;stroke-width:0.015625"
     d="m 237.52457,69.940454 c 0.0305,-0.01613 0.085,-0.06132 0.121,-0.100419 0.55174,-0.598564 1.17001,-3.097388 2.13447,-8.626681 0.0644,-0.369531 0.45504,-2.57205 0.86797,-4.894487 0.41293,-2.322436 0.75078,-4.229663 0.75078,-4.238281 0,-0.0086 0.0318,-0.01567 0.0706,-0.01567 0.0653,0 0.07,0.0027 0.0623,0.03516 -0.005,0.01934 -0.11392,0.65039 -0.24298,1.402343 -1.13223,6.597015 -2.13613,11.790944 -2.80412,14.507813 -0.23525,0.956836 -0.38464,1.37767 -0.59356,1.672092 -0.11986,0.168906 -0.27926,0.288733 -0.38287,0.287811 -0.036,-3.12e-4 -0.0347,-0.0027 0.0164,-0.02968 z"
     id="path1208"
     transform="scale(0.75000002)" />
  <path
     style="fill:#01ff90;fill-opacity:1;stroke-width:0.015625"
     d="m 241.40838,52.037573 c 0.004,-0.01504 0.13931,-0.774779 0.30143,-1.688311 0.16212,-0.913532 0.29813,-1.664333 0.30225,-1.668447 0.004,-0.0041 1.61332,-0.0985 3.57601,-0.209752 1.96269,-0.11125 3.73377,-0.21274 3.93572,-0.225533 0.85654,-0.05426 1.18552,-0.06314 2.34375,-0.06324 1.134,-9.8e-5 1.40015,0.0072 2.02344,0.05564 1.2318,0.0957 1.98997,0.282814 2.08608,0.514843 0.0165,0.03979 0.0153,0.07611 -0.007,0.215161 -0.0542,0.334523 -0.33551,1.690762 -0.58407,2.815726 l -0.0604,0.273438 -0.0966,0.0047 c -0.0937,0.0045 -0.0963,0.0036 -0.0882,-0.03125 0.0671,-0.288608 0.3607,-1.696746 0.43594,-2.090606 0.0956,-0.50023 0.10879,-0.603396 0.10021,-0.781512 -0.006,-0.125219 -0.0151,-0.169328 -0.0494,-0.23929 -0.10881,-0.222404 -0.36846,-0.334361 -1.03322,-0.445514 -0.68684,-0.114845 -0.90772,-0.128336 -2.26535,-0.13836 -1.74909,-0.01291 -3.49765,0.0389 -5.67215,0.168075 -1.39852,0.08308 -2.22125,0.153433 -3.75044,0.320705 l -0.82856,0.09063 -0.25654,1.493102 c -0.1411,0.821206 -0.26289,1.530016 -0.27065,1.575133 l -0.0141,0.08203 h -0.0673 c -0.0562,0 -0.0662,-0.0045 -0.0606,-0.02734 z"
     id="path1210"
     transform="scale(0.75000002)" />
  <path
     style="fill:#f2c037;fill-opacity:1;stroke-width:0.015625"
     d="m 258.58183,76.238418 c 0,-0.0083 0.0137,-0.05222 0.0304,-0.09766 0.0167,-0.04544 0.22,-0.631055 0.45169,-1.301367 1.2298,-3.557932 2.55299,-7.326633 4.10896,-11.703125 1.39014,-3.910072 2.54,-7.120201 5.37153,-14.995982 l 0.63896,-1.777231 0.0813,-1.12e-4 0.0813,-1.13e-4 -0.0212,0.05859 c -0.092,0.254973 -1.5012,4.184778 -2.10527,5.871094 -3.21391,8.972001 -6.00151,16.849779 -8.17877,23.113281 l -0.29466,0.847656 h -0.0822 c -0.0452,0 -0.0822,-0.0068 -0.0822,-0.01504 z"
     id="path1214"
     transform="scale(0.75000002)" />
  <path
     style="fill:#f2c037;fill-opacity:1;stroke-width:0.0110485"
     d="m 269.19622,46.32095 c 0.008,-0.02304 0.12947,-0.360089 0.26934,-0.748997 1.00949,-2.806826 1.56189,-4.36366 1.78652,-5.034967 0.0986,-0.294508 0.1202,-0.348665 0.16394,-0.409961 0.33114,-0.46405 1.54837,-0.792931 3.7473,-1.012477 2.82199,-0.281754 7.094,-0.411657 14.42111,-0.438518 l 2.05779,-0.0075 v 0.06259 0.06259 l -0.36183,4.1e-5 c -0.49184,5.5e-5 -3.23101,0.03106 -4.88622,0.05531 -3.64733,0.05344 -6.11875,0.116083 -7.42462,0.188208 -1.92989,0.10659 -4.03482,0.298616 -5.27568,0.481282 -0.60566,0.08916 -0.7367,0.12015 -1.33688,0.31618 -0.27953,0.0913 -0.56394,0.183558 -0.63203,0.205019 l -0.1238,0.03902 -0.0284,0.07839 c -0.0156,0.04311 -0.52213,1.455588 -1.12558,3.138834 l -1.09719,3.060446 -0.0844,0.0032 -0.0844,0.0032 z"
     id="path1216"
     transform="scale(0.75000002)" />
  <path
     style="fill:#f2c037;fill-opacity:1;stroke-width:0.0110485"
     d="m 302.16003,56.164569 c 0.0148,-0.03851 1.02073,-1.972089 1.60549,-3.085956 1.39927,-2.665413 2.58123,-4.872588 4.12385,-7.700835 1.32806,-2.434893 2.3903,-4.40718 3.01289,-5.594105 0.3224,-0.614631 0.45194,-0.878176 0.43834,-0.891779 -0.0853,-0.08525 -2.47124,-0.131295 -7.72697,-0.149109 -2.50736,-0.0085 -10.13978,0.02014 -11.63687,0.04367 l -0.3287,0.0052 v -0.06015 -0.06015 h 10.03841 10.03842 l -0.0327,0.05801 c -0.018,0.0319 -1.77915,3.284732 -3.91371,7.22851 -3.66105,6.764102 -4.38477,8.108452 -5.17025,9.604024 l -0.32594,0.620576 -0.0647,4.09e-4 c -0.0563,3.65e-4 -0.0638,-0.002 -0.0575,-0.01827 z"
     id="path1218"
     transform="scale(0.75000002)" />
  <path
     style="fill:#f2c037;fill-opacity:1;stroke-width:0.00390625"
     d="m 298.38805,63.622734 c 0.008,-0.01665 0.0899,-0.182324 0.18122,-0.368164 0.87371,-1.778307 2.0217,-4.054591 3.18159,-6.308594 0.33895,-0.658669 0.38716,-0.751789 0.39262,-0.758403 0.004,-0.0049 0.0152,-0.0055 0.0721,-0.0036 l 0.0672,0.0022 -0.14865,0.283204 c -1.26536,2.410635 -2.43665,4.690842 -3.37745,6.575041 l -0.3037,0.608245 -0.0401,1.52e-4 -0.0401,1.53e-4 0.0152,-0.03027 z"
     id="path1220"
     transform="scale(0.75000002)" />
  <path
     style="fill:#f2c037;fill-opacity:1;stroke-width:0.00552427"
     d="m 296.22866,68.26926 c 0,-0.0056 0.0753,-0.186139 0.14932,-0.358192 0.40805,-0.948168 1.03585,-2.288968 1.92509,-4.111439 l 0.0708,-0.145013 h 0.0378 c 0.0208,0 0.0378,8.55e-4 0.0378,0.0019 0,10e-4 -0.0748,0.153308 -0.16632,0.338362 -0.88665,1.793748 -1.56729,3.25019 -1.94245,4.156496 l -0.0492,0.118771 -0.0314,0.0017 c -0.0173,9.11e-4 -0.0314,-2.33e-4 -0.0314,-0.0025 z"
     id="path1222"
     transform="scale(0.75000002)" />
  <path
     style="fill:#f2c037;fill-opacity:1;stroke-width:0.00552427"
     d="m 304.0676,70.758419 c -1.21973,-0.05312 -1.6711,-0.07531 -2.41134,-0.118587 -2.30868,-0.134961 -3.75726,-0.310433 -4.60448,-0.557762 -0.22646,-0.06611 -0.3812,-0.124261 -0.54414,-0.204493 -0.34772,-0.171213 -0.53308,-0.377766 -0.57989,-0.646192 -0.007,-0.04014 -0.007,-0.0527 -1.2e-4,-0.09762 0.0193,-0.125489 0.0976,-0.359501 0.23854,-0.713084 l 0.0589,-0.147774 h 0.0328 c 0.024,0 0.032,0.0018 0.0299,0.0069 -0.055,0.134383 -0.15209,0.393544 -0.19191,0.512376 -0.11377,0.339492 -0.12343,0.456733 -0.0491,0.595649 0.0288,0.05376 0.0601,0.09334 0.11914,0.150627 0.52097,0.505342 2.29466,0.86029 5.13125,1.026865 0.75887,0.04456 1.7599,0.0802 2.56326,0.09124 0.12154,0.0017 0.27131,0.0045 0.33284,0.0063 l 0.11187,0.0033 v 0.05187 c 0,0.02853 -0.002,0.05154 -0.004,0.05113 -0.002,-4.06e-4 -0.10731,-0.0052 -0.2334,-0.01072 z"
     id="path1224"
     transform="scale(0.75000002)" />
  <path
     style="fill:#f2c037;fill-opacity:1;stroke-width:0.0078125"
     d="m 311.15133,76.638263 c 0.002,-0.0056 0.0371,-0.06103 0.0776,-0.12325 0.39783,-0.610155 1.31541,-2.050987 1.70349,-2.674899 0.85822,-1.379758 1.22223,-2.037461 1.30348,-2.355149 0.0245,-0.09588 0.0168,-0.173614 -0.0201,-0.202661 -0.14343,-0.112828 -3.32927,-0.292045 -7.87514,-0.44301 -0.45546,-0.01513 -0.96875,-0.03265 -1.14062,-0.03895 -0.17188,-0.0063 -0.41445,-0.01509 -0.53906,-0.01955 -0.12461,-0.0045 -0.25557,-0.01011 -0.29102,-0.01256 l -0.0645,-0.0045 v -0.04878 -0.04878 l 0.88476,0.0027 c 1.41885,0.0044 2.58076,0.01818 3.49805,0.04158 3.12045,0.07961 5.25531,0.262101 5.82382,0.497831 0.0679,0.02817 0.12675,0.0683 0.14128,0.09638 0.0118,0.02276 0.0118,0.02756 -2e-4,0.06409 -0.091,0.278364 -1.09003,1.902286 -2.92076,4.747916 l -0.33926,0.527343 -0.12289,0.0022 c -0.0981,0.0017 -0.1221,1.14e-4 -0.11899,-0.008 z"
     id="path1226"
     transform="scale(0.75000002)" />
  <path
     style="fill:#f2c037;fill-opacity:1;stroke-width:0.0110485"
     d="m 255.34217,85.850206 c 0.0454,-0.154911 0.49553,-1.523749 0.90564,-2.754331 0.6254,-1.876595 1.48773,-4.416782 2.22415,-6.551786 l 0.0991,-0.287262 0.0814,0.0039 c 0.0448,0.0022 0.0833,0.0057 0.0855,0.0078 0.002,0.0021 -0.15867,0.475154 -0.35758,1.051207 -0.53156,1.539372 -0.97024,2.821525 -1.45272,4.245922 -0.61244,1.808093 -0.90723,2.700018 -1.40223,4.242641 l -0.0195,0.06077 -0.0856,0.0032 c -0.0847,0.0032 -0.0856,0.003 -0.0782,-0.0221 z"
     id="path1228"
     transform="scale(0.75000002)" />
  <path
     style="fill:#f2c037;fill-opacity:1;stroke-width:0.0110485"
     d="m 270.37912,89.387057 c -0.90239,-0.03199 -1.93593,-0.04746 -4.3918,-0.06573 -1.45081,-0.01079 -1.844,-0.0171 -2.72899,-0.04376 -5.09142,-0.153384 -8.58412,-0.621126 -8.58467,-1.14966 -1.2e-4,-0.111882 0.23177,-0.914277 0.57138,-1.977109 l 0.0865,-0.27069 0.0863,-0.0032 c 0.0786,-0.003 0.0857,-0.0015 0.0801,0.01657 -0.003,0.0109 -0.0464,0.149084 -0.0956,0.307078 -0.10368,0.33307 -0.57065,1.890408 -0.576,1.920945 -0.003,0.0182 0.0621,0.03978 0.55987,0.185189 0.30991,0.09053 0.61816,0.174456 0.68501,0.18651 0.83627,0.150811 4.25084,0.394162 8.36374,0.59607 0.98878,0.04854 1.26327,0.06118 2.65165,0.1221 2.23978,0.09828 3.97139,0.185019 3.68469,0.184575 -0.082,-1.27e-4 -0.25853,-0.0041 -0.39222,-0.0088 z"
     id="path1230"
     transform="scale(0.75000002)" />
  <path
     style="fill:#f2c037;fill-opacity:1;stroke-width:0.0078125"
     d="m 275.62994,104.39653 c 0.007,-0.0225 0.442,-1.89332 0.66502,-2.85742 1.42661,-6.167034 2.30307,-10.209272 2.37025,-10.931564 0.005,-0.05355 0.005,-0.08971 -6.2e-4,-0.109375 -0.05,-0.182471 -0.48822,-0.356228 -1.30323,-0.516774 -0.51759,-0.101958 -1.2503,-0.204684 -2.03906,-0.285877 -0.29055,-0.02991 -0.31843,-0.03319 -0.29164,-0.03429 0.0537,-0.0022 0.86002,0.0717 1.31508,0.120552 1.47107,0.157909 2.28372,0.331381 2.48909,0.531334 0.0582,0.05665 0.0644,0.08224 0.0469,0.1934 -0.13189,0.837016 -1.61954,7.502822 -2.93037,13.130254 -0.0626,0.26855 -0.1286,0.55243 -0.14677,0.63084 l -0.033,0.14256 h -0.0728 c -0.0657,0 -0.0724,-10e-4 -0.0688,-0.0136 z"
     id="path1232"
     transform="scale(0.75000002)" />
  <path
     style="fill:#f2c037;fill-opacity:1;stroke-width:0.0078125"
     d="m 273.40423,113.76372 c 0.10545,-0.4122 1.36409,-5.69988 1.91402,-8.04101 0.16604,-0.70684 0.30366,-1.29131 0.30584,-1.29883 0.003,-0.0117 0.014,-0.0137 0.0737,-0.0137 0.0384,0 0.0698,0.003 0.0698,0.007 0,0.0134 -0.21406,0.92287 -0.85159,3.61803 -0.34357,1.45243 -1.01643,4.31075 -1.23127,5.23046 -0.0622,0.26641 -0.11512,0.49229 -0.11755,0.50196 -0.004,0.0168 -0.008,0.0176 -0.0864,0.0176 h -0.082 z"
     id="path1240"
     transform="scale(0.75000002)" />
  <path
     style="fill:#f2c037;fill-opacity:1;stroke-width:0.0078125"
     d="m 271.21293,123.15483 c 0,-0.0121 0.75803,-3.31786 1.21785,-5.31103 0.14175,-0.61445 0.4053,-1.72715 0.58565,-2.47266 0.18036,-0.7455 0.33943,-1.40377 0.3535,-1.46281 0.0141,-0.059 0.0279,-0.11102 0.0306,-0.11552 0.003,-0.005 0.0349,-0.007 0.0834,-0.006 l 0.0784,0.002 -0.22184,0.94922 c -0.47255,2.02208 -1.03811,4.45935 -1.45483,6.26953 -0.27035,1.17444 -0.49311,2.14528 -0.49311,2.14918 0,0.002 -0.0404,0.003 -0.0898,0.003 -0.0494,0 -0.0898,-0.002 -0.0898,-0.005 z"
     id="path1242"
     transform="scale(0.75000002)" />
  <path
     style="fill:#f2c037;fill-opacity:1;stroke-width:0.0078125"
     d="m 269.79886,129.39955 c 0,-0.023 0.93444,-4.15598 1.33825,-5.91903 l 0.0725,-0.31641 0.0907,-0.002 0.0907,-0.002 -0.007,0.0295 c -0.004,0.0162 -0.0685,0.30024 -0.1442,0.6311 -0.35549,1.55465 -0.70796,3.10777 -1.02388,4.51172 -0.11361,0.50488 -0.21453,0.95313 -0.22426,0.99609 l -0.0177,0.0781 -0.0878,0.002 c -0.0719,0.002 -0.0878,1.9e-4 -0.0878,-0.009 z"
     id="path1246"
     transform="scale(0.75000002)" />
  <path
     style="fill:#f2c037;fill-opacity:1;stroke-width:0.00390625"
     d="m 277.55101,127.08067 c 0.29852,-0.43707 3.8697,-5.72316 4.93227,-7.30078 l 0.0875,-0.12989 h 0.12244 c 0.0969,0 0.12182,10e-4 0.11949,0.005 -0.008,0.0128 -1.22552,1.817 -1.96367,2.90918 -0.88411,1.30814 -1.97504,2.91954 -2.82501,4.17277 l -0.26157,0.38567 -0.12005,7e-5 -0.12005,8e-5 0.0287,-0.042 z"
     id="path1248"
     transform="scale(0.75000002)" />
  <path
     style="fill:#f2c037;fill-opacity:1;stroke-width:0.0110485"
     d="m 290.58342,107.73432 c 4.62345,-6.89522 10.18094,-15.245694 13.05731,-19.619447 0.32171,-0.489174 0.59096,-0.895806 0.59834,-0.903626 0.01,-0.01023 0.0452,-0.01333 0.12666,-0.01105 l 0.11324,0.0032 -0.28432,0.430893 c -3.08684,4.678196 -7.83224,11.809918 -13.04733,19.60845 l -0.72921,1.09044 -0.1183,2.7e-4 -0.1183,2.9e-4 z"
     id="path1250"
     transform="scale(0.75000002)" />
  <path
     style="fill:#f2c037;fill-opacity:1;stroke-width:0.0110485"
     d="m 304.32647,87.073548 c 0.0445,-0.06836 0.68663,-1.046573 1.42689,-2.173801 2.09581,-3.191392 3.51293,-5.356993 4.42471,-6.761709 0.2268,-0.34941 0.41821,-0.641683 0.42536,-0.649495 0.009,-0.01027 0.0453,-0.01333 0.12978,-0.01105 l 0.11678,0.0032 -0.39434,0.60767 c -1.34167,2.067473 -3.685,5.643048 -5.58086,8.515571 l -0.39188,0.593765 -0.11871,9.4e-5 -0.1187,9.4e-5 z"
     id="path1252"
     transform="scale(0.75000002)" />
  <path
     style="fill:#f2c037;fill-opacity:1;stroke-width:0.0078125"
     d="m 282.65503,119.52849 c 0.43836,-0.64418 4.57917,-6.80262 6.70023,-9.96495 l 0.82393,-1.22841 h 0.11957 0.11958 l -0.14345,0.21289 c -0.0789,0.11709 -0.39422,0.5873 -0.70072,1.04492 -1.46088,2.1812 -4.03693,6.01459 -5.81044,8.64648 l -0.94893,1.40821 h -0.12042 -0.12042 z"
     id="path1256"
     transform="scale(0.75000002)" />
  <path
     style="fill:#f2c037;fill-opacity:1;stroke-width:0.0078125"
     d="m 267.19389,142.2426 c -0.011,-0.0535 -0.0116,-0.0835 -0.004,-0.19354 0.0532,-0.79218 0.61711,-3.6347 1.69951,-8.56622 0.28277,-1.28831 0.64634,-2.92223 0.65152,-2.92801 0.003,-0.003 0.0442,-0.005 0.0914,-0.004 l 0.0859,0.002 -0.19691,0.88672 c -1.18961,5.35712 -1.87143,8.67797 -1.93336,9.41654 -0.0155,0.18537 0.0145,0.4919 0.0534,0.54413 0.0339,0.0456 0.0424,0.0377 0.23693,-0.22239 0.70413,-0.94136 3.61865,-5.16949 7.09653,-10.29501 l 0.22657,-0.3339 h 0.11132 c 0.0612,0 0.11133,0.002 0.11133,0.004 0,0.004 -0.36561,0.54111 -1.13554,1.66785 -4.14194,6.06142 -6.55432,9.49503 -7.007,9.97326 -0.0343,0.0362 -0.0671,0.0658 -0.073,0.0658 -0.006,0 -0.0123,-0.008 -0.0143,-0.0176 z"
     id="path1258"
     transform="scale(0.75000002)" />
  <path
     transform="scale(0.75000002)"
     id="path937"
     d="m 267.67999,140.90258 c 0,-0.3113 0.80386,-4.30246 1.50859,-7.49008 0.25794,-1.16673 0.49969,-2.51336 0.53721,-2.99252 0.0375,-0.47916 0.13312,-0.91668 0.21243,-0.97227 0.0793,-0.0556 0.72472,-2.64666 1.43426,-5.75793 0.70953,-3.11127 1.96391,-8.52064 2.7875,-12.02081 2.4098,-10.24148 4.83372,-20.919457 4.83372,-21.293786 0,-0.500686 -3.52755,-0.872396 -11.84404,-1.248048 -8.34547,-0.376963 -11.8825,-0.691049 -12.1206,-1.076302 -0.19595,-0.317047 4.72189,-14.585629 13.19972,-38.297569 l 3.42868,-9.5898 0.7955,-0.255647 c 2.26379,-0.727511 8.48112,-0.985453 24.87699,-1.032083 7.49697,-0.02132 13.68229,0.01267 13.74517,0.07554 0.0629,0.06287 -1.23231,2.608456 -2.8782,5.656855 -4.32297,8.006734 -6.48737,12.146473 -9.03122,17.273583 -2.60224,5.244789 -3.4211,7.13179 -3.26797,7.530828 0.0601,0.156769 0.32777,0.397969 0.59469,0.536001 0.98729,0.510544 2.66182,0.65235 13.60225,1.151884 2.18116,0.09959 3.99678,0.212104 4.03471,0.25003 0.10787,0.107872 -0.43318,1.086931 -1.74965,3.166056 -0.66697,1.053361 -1.21267,2.03164 -1.21267,2.173956 0,0.142316 -0.18887,0.433944 -0.41971,0.648063 -0.23085,0.214119 -2.00664,2.815567 -3.94621,5.780996 -3.9125,5.981847 -18.96564,28.556693 -25.31399,37.962803 -2.2475,3.33003 -4.0441,6.0546 -3.99246,6.0546 0.13636,0 -2.04875,3.21866 -2.39937,3.53425 -0.1628,0.14655 -1.78762,2.45406 -3.6107,5.12781 -1.82309,2.67374 -3.42494,4.97784 -3.55967,5.12021 -0.21471,0.22688 -0.24496,0.22482 -0.24496,-0.0166 z"
     style="fill:#000000;stroke-width:0.176777;fill-opacity:1" />
  <rect
     y="25.11957"
     x="193.80449"
     height="81.588135"
     width="43.182201"
     id="rect939"
     style="fill:#000000;fill-opacity:1;stroke-width:0.75" />
  <rect
     y="55.763706"
     x="189.37198"
     height="14.073014"
     width="7.9045696"
     id="rect941"
     style="fill:#000000;fill-opacity:1;stroke-width:0.75" />
  <path
     id="path925"
     d="m 202.45114,113.99693 5.40407,-31.059451 2.49146,-14.250618 -8.44094,0.128613 c -3.77432,0.05751 -7.66498,0.10798 -8.08767,-0.04392 l -0.66543,-0.01932 0.68377,-3.374166 c 0.7129,-3.517878 4.08912,-15.568927 8.77502,-32.358296 l 2.64472,-9.475879 1.37596,-5.072246 6.77403,0.118168 21.36798,-0.07151 -4.3046,10.033026 -8.3007,22.653351 7.44936,-0.07163 5.43369,0.09581 -7.11347,14.757788 -25.4126,48.42786 z"
     style="fill:#f2c037;fill-opacity:1;stroke-width:0.23551"
     sodipodi:nodetypes="cccsscssccccccccccc" />
</svg>
